<svg id="svg" version="1.1" xmlns="http://www.w3.org/2000/svg" viewBox="0 0 1600 1600" style="display: block;"><path d="M0 0 C528 0 1056 0 1600 0 C1600 528 1600 1056 1600 1600 C1072 1600 544 1600 0 1600 C0 1072 0 544 0 0 Z " transform="translate(0,0)" style="fill: #F9485A;"/><path d="M0 0 C3.37869235 1.25993911 6.29728887 2.69676166 9.30078125 4.6875 C10.50855225 5.48172363 10.50855225 5.48172363 11.74072266 6.29199219 C13.01375244 7.13745605 13.01375244 7.13745605 14.3125 8 C16.09691674 9.17300075 17.88208406 10.34486041 19.66796875 11.515625 C20.55919434 12.10021484 21.45041992 12.68480469 22.36865234 13.28710938 C26.259448 15.8198448 30.18574532 18.29350618 34.125 20.75 C34.79313721 21.16765625 35.46127441 21.5853125 36.1496582 22.015625 C39.51384668 24.11503606 39.51384668 24.11503606 43 26 C43 26.66 43 27.32 43 28 C43.87140625 28.25652344 44.7428125 28.51304687 45.640625 28.77734375 C49.06130274 30.02231135 51.72096188 31.55848168 54.75 33.5625 C58.29116869 35.92724298 58.29116869 35.92724298 62 38 C62 38.66 62 39.32 62 40 C62.6909375 40.24492188 63.381875 40.48984375 64.09375 40.7421875 C67.47300461 42.20471436 70.44308178 44.09845561 73.5 46.125 C74.75709899 46.94640551 76.01492661 47.76669686 77.2734375 48.5859375 C77.90217773 48.99553711 78.53091797 49.40513672 79.17871094 49.82714844 C81.79935956 51.51476184 84.46081105 53.13221084 87.125 54.75 C95.40427241 59.81460986 103.50472754 65.153595 111.63183594 70.45751953 C114.93441247 72.60862041 118.24631486 74.74495427 121.5625 76.875 C122.55378906 77.51179687 123.54507812 78.14859375 124.56640625 78.8046875 C131.12963761 83.00678114 137.71045749 87.18141173 144.2890625 91.359375 C152.94111056 96.85590428 161.58677526 102.36090422 170.1875 107.9375 C183.5293461 116.60395803 183.5293461 116.60395803 197.19921875 124.73828125 C197.79347656 125.15464844 198.38773438 125.57101562 199 126 C199 126.66 199 127.32 199 128 C199.73734375 128.27972656 200.4746875 128.55945313 201.234375 128.84765625 C214.32858827 134.30357845 226.68173109 143.94398199 238.3359375 151.9765625 C240.14004541 153.17314256 240.14004541 153.17314256 243 154 C243 154.66 243 155.32 243 156 C244.27617188 156.34804688 244.27617188 156.34804688 245.578125 156.703125 C249.45739258 158.1733497 252.47217012 160.27601127 255.75 162.75 C260.40226636 166.1642072 265.05892618 169.34564796 270.05078125 172.25 C280.57360967 178.49400945 290.88636546 185.14926158 300.99609375 192.0390625 C303.21751569 193.4891975 305.42283866 194.83608914 307.72265625 196.1484375 C322.22524409 204.53391272 335.14681485 215.99404892 343 231 C343.60070313 232.08667969 344.20140625 233.17335938 344.8203125 234.29296875 C349.05542441 242.2758889 351.95616296 250.20472021 354 259 C354.17587646 259.72832031 354.35175293 260.45664062 354.53295898 261.20703125 C358.38516082 278.40306701 357.17222788 296.55935123 351 313 C350.59265625 314.11503906 350.1853125 315.23007812 349.765625 316.37890625 C348.61147439 319.31299692 347.3538768 322.15317749 346 325 C345.37544922 326.34578125 345.37544922 326.34578125 344.73828125 327.71875 C336.98644219 343.17800498 322.54827648 358.77578859 307.0546875 366.4609375 C303.95280854 368.02377677 301.18041282 369.79371568 298.3125 371.75 C293.49735164 375.0017113 288.64180884 378.16930047 283.73046875 381.2734375 C281.85411784 382.45991404 279.9819325 383.65299593 278.11328125 384.8515625 C270.15882715 389.95196281 270.15882715 389.95196281 266.4375 392 C263.55246446 393.67856613 260.90272624 395.44398507 258.1875 397.375 C254.96302625 399.66505418 251.72388836 401.8121344 248.3125 403.8125 C243.99500159 406.35021458 239.83905169 409.07831495 235.6875 411.875 C230.73478049 415.2030612 225.75587158 418.47526167 220.6875 421.625 C219.11548828 422.60339844 219.11548828 422.60339844 217.51171875 423.6015625 C215 425 215 425 213 425 C213 425.66 213 426.32 213 427 C211.19921875 428.26171875 211.19921875 428.26171875 208.6875 429.6875 C203.02344249 432.97630759 197.50982873 436.46004407 192 440 C190.94039062 440.67933594 189.88078125 441.35867188 188.7890625 442.05859375 C183.85080837 445.22709792 178.9172465 448.4026414 173.99609375 451.59765625 C165.6576339 457.00994436 157.28441588 462.36176025 148.87402344 467.66162109 C140.29059997 473.07229976 131.75241107 478.55058716 123.25390625 484.09375 C114.83846147 489.58127406 106.40775551 495.03076363 97.87207031 500.32958984 C90.85388538 504.69429982 83.92909444 509.20085072 76.99902344 513.70361328 C74.00532094 515.64505933 71.0030585 517.57306984 68 519.5 C63.740847 522.23400176 59.48816153 524.97766092 55.24145508 527.73095703 C46.1977721 533.59381772 37.12455956 539.40988292 28.04345703 545.21459961 C22.94793475 548.47187375 17.8557474 551.73381154 12.77709961 555.01733398 C-4.22339927 566 -4.22339927 566 -7 566 C-7 566.66 -7 567.32 -7 568 C-9.16507459 569.25282406 -11.33198357 570.50228442 -13.5 571.75 C-14.10070312 572.09804687 -14.70140625 572.44609375 -15.3203125 572.8046875 C-22.70961996 577.04960881 -29.73504736 580.49432571 -38 582.6875 C-39.13308594 583.00557617 -39.13308594 583.00557617 -40.2890625 583.33007812 C-65.28670331 590.13785487 -91.50468969 585.45298208 -113.99072266 573.15966797 C-120.70637104 569.28368621 -126.72923258 564.70999803 -132 559 C-132.58652344 558.44441406 -133.17304687 557.88882813 -133.77734375 557.31640625 C-137.14304005 554.1158975 -139.74059203 551.61782922 -141 547 C-141.66 547 -142.32 547 -143 547 C-149.63738172 538.50415139 -154.10400832 529.2118728 -157.36669922 518.98388672 C-157.9662055 517.10586511 -158.60883716 515.24176932 -159.25390625 513.37890625 C-166.51597835 489.46720543 -162.61990825 462.80490515 -151.19921875 440.875 C-142.51611279 425.15060039 -128.4177049 412.32626501 -114.93798828 400.68847656 C-111.72301833 397.8874269 -108.6123742 394.97651471 -105.5 392.0625 C-104.84636475 391.45204834 -104.19272949 390.84159668 -103.51928711 390.21264648 C-99.5198714 386.46422138 -95.60792857 382.64803501 -91.76953125 378.734375 C-89.8327406 376.83606364 -87.81045463 375.07537526 -85.75 373.3125 C-82.77369962 370.75890376 -80.4329376 368.08172096 -78 365 C-76.01739574 363.31267723 -74.0167658 361.64633943 -72 360 C-69.31279024 357.44387364 -66.90251536 354.8800189 -64.5625 352 C-62 349 -62 349 -59.0625 346.5625 C-56.13497149 344.11293533 -53.85691418 341.60807319 -51.43359375 338.6875 C-49.42462941 336.32272454 -47.19342897 334.19342897 -45 332 C-43.99119056 330.84094235 -42.99164137 329.67377958 -42 328.5 C-39.4668352 325.51035119 -36.8061757 322.739362 -34 320 C-26.19242526 312.35783998 -19.16831797 304.40964522 -12.63916016 295.65551758 C-9.99354642 292.14529975 -7.11634319 289.09058829 -4 286 C-3.06825065 284.75525992 -2.1651411 283.48770686 -1.3125 282.1875 C-0.1678125 280.6096875 -0.1678125 280.6096875 1 279 C1.66 279 2.32 279 3 279 C3.37125 277.92105469 3.37125 277.92105469 3.75 276.8203125 C5.13120887 273.70395999 6.82363994 271.49143287 9 268.875 C11.13736093 266.28973622 13.13758894 263.79361659 15 261 C15.66 261 16.32 261 17 261 C17.07734375 260.30648438 17.1546875 259.61296875 17.234375 258.8984375 C18.19564517 255.2593433 20.06706618 252.62154488 22.25 249.625 C22.65677979 249.05136719 23.06355957 248.47773437 23.48266602 247.88671875 C25.17916617 245.49977856 26.90229182 243.13292044 28.63671875 240.7734375 C30.94779713 237.6225979 32.75945917 234.7216225 34 231 C34.66 231 35.32 231 36 231 C36.09152344 230.48824219 36.18304687 229.97648438 36.27734375 229.44921875 C37.28686839 226.02774876 38.93524789 222.9712159 40.5625 219.8125 C41.2929328 218.36652431 42.02205959 216.91988828 42.75 215.47265625 C43.12382813 214.73031738 43.49765625 213.98797852 43.8828125 213.22314453 C49.93473128 201.18014356 54.99997718 189.12005079 59.23144531 176.31225586 C59.74493093 174.7673949 60.27040496 173.22646852 60.80761719 171.68969727 C62.49855307 166.81075155 63.7398115 162.02230438 64.625 156.9375 C64.74617187 156.28201172 64.86734375 155.62652344 64.9921875 154.95117188 C65.35053399 152.97052852 65.68029736 150.98721996 66 149 C66.18820312 147.83597656 66.37640625 146.67195312 66.5703125 145.47265625 C68.54087104 128.85239094 68.69529451 109.06723121 64 93 C63.76893555 92.20126465 63.53787109 91.4025293 63.29980469 90.57958984 C56.68335237 68.16271648 46.23708798 49.10529382 30.89453125 31.40234375 C30.34635742 30.76925293 29.79818359 30.13616211 29.23339844 29.48388672 C28.13128625 28.21655433 27.02395926 26.95373558 25.91113281 25.69580078 C22 21.21756617 22 21.21756617 22 19 C21.11248047 18.59467041 21.11248047 18.59467041 20.20703125 18.18115234 C18.0185094 17.00990581 16.48778446 15.79711681 14.6875 14.1015625 C13.78644531 13.25851562 13.78644531 13.25851562 12.8671875 12.3984375 C12.25101563 11.81320312 11.63484375 11.22796875 11 10.625 C10.38382813 10.0475 9.76765625 9.47 9.1328125 8.875 C6.03761437 5.96577944 2.98158539 3.02630917 0 0 Z " transform="translate(703,475)" style="fill: #FEFEFE;"/><path d="M0 0 C0.90234375 0.20496094 1.8046875 0.40992188 2.734375 0.62109375 C10.30542166 2.61282334 17.09853731 6.39281232 24 10 C25.33160512 10.67011196 26.66404464 11.33860338 28 12 C28 12.66 28 13.32 28 14 C29.5778125 14.3403125 29.5778125 14.3403125 31.1875 14.6875 C35.2077258 15.83613594 37.22167296 17.85610361 40 21 C43.87946092 24.96856514 47.91919711 28.74182469 52 32.5 C64.66147549 44.1604614 75.52107399 56.62872509 85 71 C85.96486328 72.38058594 85.96486328 72.38058594 86.94921875 73.7890625 C100.32353177 94.72941545 107.18816483 118.76581606 107.18530273 143.45141602 C107.1874699 145.53358015 107.20562094 147.61519613 107.22460938 149.69726562 C107.2795799 162.82201352 105.91740077 175.41397342 102 188 C101.56107224 189.45829551 101.12228212 190.91663245 100.68359375 192.375 C95.65249253 208.89927528 89.12135228 224.1766745 81.25341797 239.54150391 C79.14284679 243.68124908 77.07212314 247.84090964 75 252 C74.34 252 73.68 252 73 252 C72.77054688 252.8353125 72.54109375 253.670625 72.3046875 254.53125 C70.75570807 258.64949472 68.61829209 261.9018088 66.125 265.5 C65.69058594 266.13808594 65.25617188 266.77617188 64.80859375 267.43359375 C62.79582343 270.3892835 60.7692514 273.33534398 58.7421875 276.28125 C56.88582683 278.93319485 56.88582683 278.93319485 56 282 C55.34 282 54.68 282 54 282 C53.65582031 282.76763672 53.65582031 282.76763672 53.3046875 283.55078125 C51.49567009 286.94675105 49.33399715 290.04145012 47.125 293.1875 C46.69058594 293.82880859 46.25617188 294.47011719 45.80859375 295.13085938 C42.49554553 299.84175527 42.49554553 299.84175527 39.84326172 300.6887207 C39.23498535 300.79144287 38.62670898 300.89416504 38 301 C37.01524786 299.90081184 36.03739527 298.7954398 35.0625 297.6875 C34.51722656 297.07261719 33.97195313 296.45773437 33.41015625 295.82421875 C32 294 32 294 31 291 C30.34 290.67 29.68 290.34 29 290 C29 289.34 29 288.68 29 288 C28.34 288 27.68 288 27 288 C27 287.34 27 286.68 27 286 C26.34 286 25.68 286 25 286 C24.07543138 284.63026871 23.15764906 283.25549851 22.2734375 281.859375 C19.15491951 277.30595609 15.59599365 273.06399576 11 270 C11 269.34 11 268.68 11 268 C10.34 268 9.68 268 9 268 C8.9175 267.21625 8.835 266.4325 8.75 265.625 C8.5025 264.75875 8.255 263.8925 8 263 C6.67134059 262.32406628 5.33709167 261.65909642 4 261 C2.58161823 259.6913421 1.20758764 258.33342355 -0.125 256.9375 C-2.77905 254.08428067 -2.77905 254.08428067 -6 252 C-6 251.34 -6 250.68 -6 250 C-6.66 250 -7.32 250 -8 250 C-9.5078125 248.3203125 -9.5078125 248.3203125 -11.125 246.125 C-11.66382813 245.40570312 -12.20265625 244.68640625 -12.7578125 243.9453125 C-14 242 -14 242 -14 240 C-14.86625 239.62875 -14.86625 239.62875 -15.75 239.25 C-18.32939979 237.81700012 -20.06121592 236.21575324 -22 234 C-22 233.34 -22 232.68 -22 232 C-22.66 232 -23.32 232 -24 232 C-24 231.01 -24 230.02 -24 229 C-24.61875 228.690625 -25.2375 228.38125 -25.875 228.0625 C-27.25 227.375 -28.625 226.6875 -30 226 C-30 225.34 -30 224.68 -30 224 C-30.66 224 -31.32 224 -32 224 C-32.2475 223.195625 -32.495 222.39125 -32.75 221.5625 C-33.72238859 218.828919 -33.72238859 218.828919 -36.125 218.1875 C-36.74375 218.125625 -37.3625 218.06375 -38 218 C-38 217.34 -38 216.68 -38 216 C-38.86625 215.62875 -38.86625 215.62875 -39.75 215.25 C-42.32939979 213.81700012 -44.06121592 212.21575324 -46 210 C-46 209.34 -46 208.68 -46 208 C-46.53625 207.773125 -47.0725 207.54625 -47.625 207.3125 C-50.82460161 205.54429911 -53.29037223 203.46329797 -56 201 C-56 200.34 -56 199.68 -56 199 C-56.8353125 198.6596875 -56.8353125 198.6596875 -57.6875 198.3125 C-60.65855185 196.62622733 -62.64522125 194.469646 -65 192 C-68.18062078 188.56836143 -68.18062078 188.56836143 -72 186 C-72 185.34 -72 184.68 -72 184 C-72.66 184 -73.32 184 -74 184 C-74 183.34 -74 182.68 -74 182 C-75.32 181.34 -76.64 180.68 -78 180 C-78 179.34 -78 178.68 -78 178 C-78.5775 177.731875 -79.155 177.46375 -79.75 177.1875 C-82.05550043 175.97070811 -84.02056192 174.69666121 -86 173 C-86 172.34 -86 171.68 -86 171 C-86.721875 170.773125 -87.44375 170.54625 -88.1875 170.3125 C-91.56432417 168.73664872 -93.55767039 166.79123384 -96 164 C-96 163.34 -96 162.68 -96 162 C-96.99 161.67 -97.98 161.34 -99 161 C-100.28125 159.546875 -100.28125 159.546875 -101.5 157.75 C-102.14582031 156.80640625 -102.14582031 156.80640625 -102.8046875 155.84375 C-103.78213033 154.3360604 -104.71091062 152.79692049 -105.625 151.25 C-106.84270467 149.02332619 -106.84270467 149.02332619 -108.41796875 147.703125 C-110.45944687 145.5053856 -111.46418777 143.23316607 -112.6875 140.5 C-113.12449219 139.5409375 -113.56148437 138.581875 -114.01171875 137.59375 C-115 135 -115 135 -115 132 C-115.66 132 -116.32 132 -117 132 C-117.81977607 129.1685963 -118.63094274 126.33517098 -119.4375 123.5 C-119.66759766 122.70851563 -119.89769531 121.91703125 -120.13476562 121.1015625 C-126.73860586 97.74885212 -124.50760074 71.56143827 -112.8046875 50.3203125 C-111.31314783 47.57613778 -110.0784619 44.92407712 -109 42 C-108.34 42 -107.68 42 -107 42 C-106.690625 41.38125 -106.38125 40.7625 -106.0625 40.125 C-105.375 38.75 -104.6875 37.375 -104 36 C-103.34 36 -102.68 36 -102 36 C-101.690625 34.9790625 -101.690625 34.9790625 -101.375 33.9375 C-98.95236688 28.76187469 -94.92213394 23.98843846 -90 21 C-89.34 21 -88.68 21 -88 21 C-88 20.34 -88 19.68 -88 19 C-82.58823529 15 -82.58823529 15 -80 15 C-80 14.34 -80 13.68 -80 13 C-77.09451118 10.95830515 -75.59857954 10 -72 10 C-72 9.34 -72 8.68 -72 8 C-69.36 7.34 -66.72 6.68 -64 6 C-64 5.34 -64 4.68 -64 4 C-61.48025747 3.34964629 -58.95934065 2.70462507 -56.4375 2.0625 C-55.73302734 1.88009766 -55.02855469 1.69769531 -54.30273438 1.50976562 C-50.88682751 0.64398278 -47.53157644 -0.10980755 -44.03515625 -0.56640625 C-41.12799479 -0.67200521 -41.12799479 -0.67200521 -40 -2 C-26.47906916 -4.48343628 -13.24330615 -3.08150522 0 0 Z " transform="translate(664,454)" style="fill: #FA7E8C;"/><path d="M0 0 C3.37869235 1.25993911 6.29728887 2.69676166 9.30078125 4.6875 C10.10596191 5.21698242 10.91114258 5.74646484 11.74072266 6.29199219 C13.01375244 7.13745605 13.01375244 7.13745605 14.3125 8 C16.09691674 9.17300075 17.88208406 10.34486041 19.66796875 11.515625 C20.55919434 12.10021484 21.45041992 12.68480469 22.36865234 13.28710938 C26.259448 15.8198448 30.18574532 18.29350618 34.125 20.75 C34.79313721 21.16765625 35.46127441 21.5853125 36.1496582 22.015625 C39.51384668 24.11503606 39.51384668 24.11503606 43 26 C43 26.66 43 27.32 43 28 C43.66 28.33 44.32 28.66 45 29 C40.61110675 28.33501617 37.0188515 26.81242323 33 25 C33 27.31 33 29.62 33 32 C28.88981036 28.64026633 25.05359558 25.39717763 22 21 C22 20.34 22 19.68 22 19 C21.40832031 18.72978027 20.81664062 18.45956055 20.20703125 18.18115234 C18.0185094 17.00990581 16.48778446 15.79711681 14.6875 14.1015625 C14.08679688 13.53953125 13.48609375 12.9775 12.8671875 12.3984375 C12.25101563 11.81320312 11.63484375 11.22796875 11 10.625 C10.38382813 10.0475 9.76765625 9.47 9.1328125 8.875 C6.03761437 5.96577944 2.98158539 3.02630917 0 0 Z " transform="translate(703,475)" style="fill: #FCF2F1;"/><path d="M0 0 C0 1.32 0 2.64 0 4 C0.66 4.33 1.32 4.66 2 5 C1.55269531 5.50789062 1.10539063 6.01578125 0.64453125 6.5390625 C-2.96286942 10.64642275 -6.52114925 14.78321121 -10 19 C-10.33 18.34 -10.66 17.68 -11 17 C-10.0625 14.875 -10.0625 14.875 -9 13 C-9.66 13 -10.32 13 -11 13 C-11.33 13.99 -11.66 14.98 -12 16 C-13 15 -13 15 -13.5 12.4375 C-12.76631184 7.39339392 -9.83133201 4.26286202 -6 1 C-3.85359544 0.25670805 -2.26358046 0 0 0 Z " transform="translate(685,771)" style="fill: #ED4F5F;"/><path d="M0 0 C1.65 0 3.3 0 5 0 C5.33 0.66 5.66 1.32 6 2 C6.66 1.34 7.32 0.68 8 0 C8.99 0 9.98 0 11 0 C11 0.66 11 1.32 11 2 C12.65 2 14.3 2 16 2 C16 3.98 16 5.96 16 8 C16.99 8.33 17.98 8.66 19 9 C19 9.66 19 10.32 19 11 C21.64 11.33 24.28 11.66 27 12 C27.33 13.32 27.66 14.64 28 16 C28.928125 16.0825 29.85625 16.165 30.8125 16.25 C34 17 34 17 35.875 19.0625 C36.24625 19.701875 36.6175 20.34125 37 21 C35.3125 21.6875 35.3125 21.6875 33 22 C30.25 20.6875 30.25 20.6875 28 19 C28 18.34 28 17.68 28 17 C27.12859375 16.74347656 26.2571875 16.48695313 25.359375 16.22265625 C21.93869726 14.97768865 19.27903812 13.44151832 16.25 11.4375 C12.70883131 9.07275702 12.70883131 9.07275702 9 7 C9 6.34 9 5.68 9 5 C8.2575 4.731875 7.515 4.46375 6.75 4.1875 C4.13363446 3.05770579 2.19812889 1.79106798 0 0 Z " transform="translate(737,496)" style="fill: #E85A6A;"/><path d="M0 0 C1.32 0 2.64 0 4 0 C4 0.66 4 1.32 4 2 C4.5775 2.103125 5.155 2.20625 5.75 2.3125 C8.31956433 3.09764466 9.88366695 4.377478 12 6 C12.66 6 13.32 6 14 6 C14.763125 5.195625 15.52625 4.39125 16.3125 3.5625 C19.07654563 0.92701463 20.28837448 0.31813933 24 0 C22.5834979 3.4232134 20.93172851 4.82484659 18 7 C17.67 7.99 17.34 8.98 17 10 C17.66 10 18.32 10 19 10 C19.33 11.98 19.66 13.96 20 16 C19.071875 15.175 18.14375 14.35 17.1875 13.5 C13.09752924 9.9799432 8.74935306 6.86160852 4.35546875 3.734375 C2 2 2 2 0 0 Z " transform="translate(1012,672)" style="fill: #E75564;"/><path d="M0 0 C1.11890625 0.28875 2.2378125 0.5775 3.390625 0.875 C18.28299852 4.41959972 32.75473901 4.42953705 48 4 C48 4.66 48 5.32 48 6 C13.09794343 6.41277905 13.09794343 6.41277905 0 4 C0 2.68 0 1.36 0 0 Z " transform="translate(608,1056)" style="fill: #E65365;"/><path d="M0 0 C0.33 0 0.66 0 1 0 C1.01981934 0.61294922 1.03963867 1.22589844 1.06005859 1.85742188 C1.48263528 14.34327893 2.15177402 26.6366243 4 39 C2.68 39 1.36 39 0 39 C-0.67629709 30.24436798 -1.1046174 21.53235133 -1.125 12.75 C-1.12951172 11.94071045 -1.13402344 11.1314209 -1.13867188 10.29760742 C-1.1295502 6.69644731 -0.9728408 3.46435662 0 0 Z " transform="translate(540,537)" style="fill: #F04F60;"/><path d="M0 0 C0.66 0.33 1.32 0.66 2 1 C1 4 1 4 -0.84765625 5.16796875 C-1.57855469 5.50441406 -2.30945313 5.84085938 -3.0625 6.1875 C-3.79597656 6.53167969 -4.52945313 6.87585938 -5.28515625 7.23046875 C-5.85105469 7.48441406 -6.41695312 7.73835937 -7 8 C-7 9.65 -7 11.3 -7 13 C-9.475 12.01 -9.475 12.01 -12 11 C-12.226875 11.61875 -12.45375 12.2375 -12.6875 12.875 C-14.37929835 15.61410209 -15.99244161 16.05024472 -19 17 C-19.33 15.68 -19.66 14.36 -20 13 C-14.42956481 9.2056456 -8.77921385 5.61555629 -2.96875 2.19921875 C-1.07037643 1.14905837 -1.07037643 1.14905837 0 0 Z " transform="translate(974,863)" style="fill: #EC4F63;"/><path d="M0 0 C4.64223602 0.62732919 4.64223602 0.62732919 6.5 2.5625 C7.97875026 4.28656977 7.97875026 4.28656977 10.6875 4.1875 C11.450625 4.125625 12.21375 4.06375 13 4 C13 4.66 13 5.32 13 6 C13.99 6 14.98 6 16 6 C17.34919532 7.65385233 18.68133728 9.321702 20 11 C22.11660427 12.31165257 22.11660427 12.31165257 24 13 C23.67 13.99 23.34 14.98 23 16 C18.545 13.525 18.545 13.525 14 11 C14 10.34 14 9.68 14 9 C13.175 8.79375 12.35 8.5875 11.5 8.375 C7.07581641 6.63692787 3.57700698 4.11399338 0 1 C0 0.67 0 0.34 0 0 Z " transform="translate(888,592)" style="fill: #E8586C;"/><path d="M0 0 C-2.7477711 1.79510291 -5.49859707 3.58546964 -8.25 5.375 C-9.02730469 5.88289062 -9.80460938 6.39078125 -10.60546875 6.9140625 C-11.35957031 7.40390625 -12.11367188 7.89375 -12.890625 8.3984375 C-13.58188477 8.84880371 -14.27314453 9.29916992 -14.98535156 9.76318359 C-16.94409302 10.96567805 -18.92924424 12.00522517 -21 13 C-20.67 11.02 -20.34 9.04 -20 7 C-18.02 7 -16.04 7 -14 7 C-14.66 6.01 -15.32 5.02 -16 4 C-16 3.01 -16 2.02 -16 1 C-15.01 0.67 -14.02 0.34 -13 0 C-12.67 0.99 -12.34 1.98 -12 3 C-10.35 3 -8.7 3 -7 3 C-6.67 2.01 -6.34 1.02 -6 0 C-3.42525708 -0.99667468 -2.51072708 -1.25536354 0 0 Z " transform="translate(736,1017)" style="fill: #FDF6FA;"/><path d="M0 0 C1.32 0.33 2.64 0.66 4 1 C-3.30655198 5.71026314 -10.61135409 10.41903954 -18 15 C-18.33 13.68 -18.66 12.36 -19 11 C-18.34 10.67 -17.68 10.34 -17 10 C-16.67 9.34 -16.34 8.68 -16 8 C-14.66666667 7.66666667 -13.33333333 7.33333333 -12 7 C-11.67 6.34 -11.34 5.68 -11 5 C-8.71484375 4.3671875 -8.71484375 4.3671875 -5.9375 3.875 C-5.01839844 3.70742188 -4.09929688 3.53984375 -3.15234375 3.3671875 C-2.44207031 3.24601563 -1.73179687 3.12484375 -1 3 C-0.67 2.01 -0.34 1.02 0 0 Z " transform="translate(819,960)" style="fill: #F6F3ED;"/><path d="M0 0 C1.32 0 2.64 0 4 0 C4.33 1.65 4.66 3.3 5 5 C7.92824652 5.97608217 9.95613276 6.08226668 13 6 C13 7 13 8 13 9 C13.99 9.33 14.98 9.66 16 10 C15.67 11.32 15.34 12.64 15 14 C12.74521227 12.7580581 10.49641699 11.50692379 8.25 10.25 C7.61578125 9.90195312 6.9815625 9.55390625 6.328125 9.1953125 C2.70341133 7.15641106 -0.19784412 5.14181113 -3 2 C-2.01 2 -1.02 2 0 2 C0 1.34 0 0.68 0 0 Z " transform="translate(784,522)" style="fill: #ED5A6E;"/><path d="M0 0 C1.46560818 10.93971819 1.09470423 21.98954106 1 33 C0.34 33 -0.32 33 -1 33 C-1.03758423 31.97229492 -1.03758423 31.97229492 -1.07592773 30.92382812 C-1.19285607 27.7824065 -1.31513874 24.64121452 -1.4375 21.5 C-1.47681641 20.42234375 -1.51613281 19.3446875 -1.55664062 18.234375 C-1.78658049 12.43281536 -2.16998731 6.74731473 -3 1 C-1 0 -1 0 0 0 Z " transform="translate(1060,735)" style="fill: #E05768;"/><path d="M0 0 C5.05856959 1.69628681 9.26160502 4.59445062 13.6875 7.5 C14.45900391 7.99886719 15.23050781 8.49773438 16.02539062 9.01171875 C21.72550517 12.72550517 21.72550517 12.72550517 24 15 C18.88523181 15.63934602 15.32745622 13.40533547 11 11 C11 10.34 11 9.68 11 9 C10.01 9 9.02 9 8 9 C7.54625 8.38125 7.0925 7.7625 6.625 7.125 C4.67293461 4.5722991 3.01102279 3.97654793 0 3 C0 2.01 0 1.02 0 0 Z " transform="translate(912,609)" style="fill: #FAF0EA;"/><path d="M0 0 C4.35699326 2.3684583 7.73189628 5.31572857 11.3125 8.6875 C11.86228516 9.19861328 12.41207031 9.70972656 12.97851562 10.23632812 C14.3226638 11.48697034 15.661846 12.74294624 17 14 C15.68 14.33 14.36 14.66 13 15 C12.896875 14.360625 12.79375 13.72125 12.6875 13.0625 C12.460625 12.381875 12.23375 11.70125 12 11 C8.71023192 9.90341064 7.28696233 10.20046862 4 11 C3.896875 10.38125 3.79375 9.7625 3.6875 9.125 C3.12474627 6.63473516 3.12474627 6.63473516 0 5 C-0.1875 2.375 -0.1875 2.375 0 0 Z " transform="translate(704,477)" style="fill: #F18896;"/><path d="M0 0 C0 0.66 0 1.32 0 2 C-0.99 2 -1.98 2 -3 2 C-3.33 3.32 -3.66 4.64 -4 6 C-5.175625 6.12375 -5.175625 6.12375 -6.375 6.25 C-9.14749104 6.72806339 -9.14749104 6.72806339 -10.3125 9.0625 C-10.6528125 10.0215625 -10.6528125 10.0215625 -11 11 C-12.65 11 -14.3 11 -16 11 C-16.33 11.99 -16.66 12.98 -17 14 C-19.31 14 -21.62 14 -24 14 C-21.06698229 11.72861652 -18.04931207 9.73130058 -14.875 7.8125 C-14.00617187 7.28269531 -13.13734375 6.75289062 -12.2421875 6.20703125 C-10 5 -10 5 -8 5 C-8 4.34 -8 3.68 -8 3 C-2.25 0 -2.25 0 0 0 Z " transform="translate(704,1038)" style="fill: #E65E70;"/><path d="M0 0 C1.98 0 3.96 0 6 0 C3.34387448 2.80427595 0.73065517 4.97824138 -2.546875 7.015625 C-3.81337891 7.80839844 -3.81337891 7.80839844 -5.10546875 8.6171875 C-5.97816406 9.15601563 -6.85085938 9.69484375 -7.75 10.25 C-8.63816406 10.80429687 -9.52632812 11.35859375 -10.44140625 11.9296875 C-12.62466248 13.29128816 -14.810878 14.64785782 -17 16 C-17.33 14.68 -17.66 13.36 -18 12 C-16.125 10.9375 -16.125 10.9375 -14 10 C-13.34 10.33 -12.68 10.66 -12 11 C-12 10.34 -12 9.68 -12 9 C-11.01 9 -10.02 9 -9 9 C-9 8.34 -9 7.68 -9 7 C-7.88625 6.773125 -6.7725 6.54625 -5.625 6.3125 C-1.83961627 5.39376342 -1.83961627 5.39376342 -0.5625 2.375 C-0.376875 1.59125 -0.19125 0.8075 0 0 Z " transform="translate(892,912)" style="fill: #FED3DA;"/><path d="M0 0 C0.33 0.66 0.66 1.32 1 2 C0.34 2 -0.32 2 -1 2 C-1.33 2.99 -1.66 3.98 -2 5 C-2.66 5 -3.32 5 -4 5 C-4 5.66 -4 6.32 -4 7 C-3.01 7 -2.02 7 -1 7 C-1 6.34 -1 5.68 -1 5 C1.375 3.3125 1.375 3.3125 4 2 C4.66 2.33 5.32 2.66 6 3 C4.99382318 5.67576692 4.45785454 6.7785108 1.8359375 8.046875 C1.02382813 8.27890625 0.21171875 8.5109375 -0.625 8.75 C-1.85089844 9.11351562 -1.85089844 9.11351562 -3.1015625 9.484375 C-3.72804688 9.65453125 -4.35453125 9.8246875 -5 10 C-5.33 9.01 -5.66 8.02 -6 7 C-6.99 6.34 -7.98 5.68 -9 5 C-6.03 3.35 -3.06 1.7 0 0 Z " transform="translate(841,949)" style="fill: #EF4C53;"/><path d="M0 0 C0.70125 0.45890625 1.4025 0.9178125 2.125 1.390625 C7.62549521 4.94801049 13.07504446 8.20520965 19 11 C18.34 11.66 17.68 12.32 17 13 C16.01 12.67 15.02 12.34 14 12 C14 11.34 14 10.68 14 10 C13.34 10.66 12.68 11.32 12 12 C11.01 12 10.02 12 9 12 C7.98133771 10.34467377 6.98189187 8.67739862 6 7 C5.01 6.67 4.02 6.34 3 6 C2.34 5.34 1.68 4.68 1 4 C0.34 3.67 -0.32 3.34 -1 3 C-0.67 2.01 -0.34 1.02 0 0 Z " transform="translate(578,1040)" style="fill: #E95668;"/><path d="M0 0 C4.79821659 1.62114502 8.6672859 4.29276759 12.8125 7.125 C13.50537109 7.59292969 14.19824219 8.06085938 14.91210938 8.54296875 C16.61091105 9.69112437 18.30584864 10.84499367 20 12 C19.01 12.33 18.02 12.66 17 13 C16.67 13.66 16.34 14.32 16 15 C14.08228343 13.25113898 12.16580317 11.50095499 10.25 9.75 C9.71117187 9.25886719 9.17234375 8.76773437 8.6171875 8.26171875 C5.6756284 5.57126836 2.7926232 2.8468489 0 0 Z " transform="translate(703,475)" style="fill: #FFDCDF;"/><path d="M0 0 C0.99 0.66 1.98 1.32 3 2 C0.92446352 2.5534764 -0.84365964 3 -3 3 C-3 3.99 -3 4.98 -3 6 C-3.99 6 -4.98 6 -6 6 C-6 6.99 -6 7.98 -6 9 C-8.31 9.66 -10.62 10.32 -13 11 C-12.67 11.66 -12.34 12.32 -12 13 C-14.375 13.625 -14.375 13.625 -17 14 C-17.66 13.34 -18.32 12.68 -19 12 C-16.20942528 10.18581449 -13.41735711 8.37394066 -10.625 6.5625 C-9.8309375 6.04623047 -9.036875 5.52996094 -8.21875 4.99804688 C-7.45820312 4.50498047 -6.69765625 4.01191406 -5.9140625 3.50390625 C-5.2123291 3.04830322 -4.5105957 2.5927002 -3.78759766 2.12329102 C-2 1 -2 1 0 0 Z " transform="translate(883,922)" style="fill: #E45465;"/><path d="M0 0 C6.30839521 3.31960761 12.30784406 6.69925996 18 11 C17.34 11.66 16.68 12.32 16 13 C9.35384615 10.53846154 9.35384615 10.53846154 7.5625 7.8125 C7.376875 7.214375 7.19125 6.61625 7 6 C6.34 6 5.68 6 5 6 C5 5.34 5 4.68 5 4 C3.02 4 1.04 4 -1 4 C-0.67 2.68 -0.34 1.36 0 0 Z " transform="translate(880,588)" style="fill: #FDF0EE;"/><path d="M0 0 C1.32 0 2.64 0 4 0 C4 0.66 4 1.32 4 2 C5.051875 2.37125 5.051875 2.37125 6.125 2.75 C9 4 9 4 11.9375 6 C14.88627624 8.13929097 14.88627624 8.13929097 18.25 8.9375 C21 10 21 10 22.375 12.625 C22.58125 13.40875 22.7875 14.1925 23 15 C18.60401528 13.44847598 14.82668655 11.1490532 10.9375 8.625 C10.32583984 8.23828125 9.71417969 7.8515625 9.08398438 7.453125 C5.67490465 5.25657201 2.74011438 2.99294289 0 0 Z " transform="translate(816,546)" style="fill: #E05E6E;"/><path d="M0 0 C2.32510245 2.84179188 4.57700599 5.72826599 6.75 8.6875 C7.17796875 9.26886719 7.6059375 9.85023438 8.046875 10.44921875 C9 12 9 12 9 14 C7.35 14.66 5.7 15.32 4 16 C3.34 15.34 2.68 14.68 2 14 C2.03287583 11.27130593 2.56397771 8.7033382 3 6 C2.01 6 1.02 6 0 6 C0 4.02 0 2.04 0 0 Z " transform="translate(551,1008)" style="fill: #E95365;"/><path d="M0 0 C2.5 1.3125 2.5 1.3125 5 3 C5 3.99 5 4.98 5 6 C4.01 5.67 3.02 5.34 2 5 C-0.06618749 5.09268505 -0.06618749 5.09268505 -2.1875 5.4375 C-3.445625 5.623125 -4.70375 5.80875 -6 6 C-6.33 6.99 -6.66 7.98 -7 9 C-8.65 9 -10.3 9 -12 9 C-10.625 7.5 -10.625 7.5 -9 6 C-8.34 6 -7.68 6 -7 6 C-7 5.34 -7 4.68 -7 4 C-4.69 2.68 -2.38 1.36 0 0 Z " transform="translate(923,896)" style="fill: #EA5665;"/><path d="M0 0 C0 1.32 0 2.64 0 4 C1.65 4 3.3 4 5 4 C5.2784375 4.928125 5.2784375 4.928125 5.5625 5.875 C7.71437233 9.05602866 10.37533763 9.19451947 14 10 C14 11.32 14 12.64 14 14 C11.26644033 12.67576584 8.67993385 11.23415194 6.109375 9.6171875 C5.40039062 9.17246094 4.69140625 8.72773438 3.9609375 8.26953125 C3.23132813 7.80933594 2.50171875 7.34914063 1.75 6.875 C1.00492188 6.40707031 0.25984375 5.93914062 -0.5078125 5.45703125 C-2.33956503 4.30631492 -4.1699207 3.15337556 -6 2 C-3 0 -3 0 0 0 Z " transform="translate(720,480)" style="fill: #E6596E;"/><path d="M0 0 C3.3 0 6.6 0 10 0 C10 0.66 10 1.32 10 2 C7.94921875 2.22786458 5.8984375 2.45572917 3.84765625 2.68359375 C1.98859771 2.81886614 1.98859771 2.81886614 1 4 C-1.07617404 4.3753535 -3.16156111 4.7003137 -5.25 5 C-10.05339918 5.68819773 -10.05339918 5.68819773 -14.796875 6.6875 C-15.52390625 6.790625 -16.2509375 6.89375 -17 7 C-17.66 6.34 -18.32 5.68 -19 5 C-17.35 5 -15.7 5 -14 5 C-13.67 4.01 -13.34 3.02 -13 2 C-12.34 2.20625 -11.68 2.4125 -11 2.625 C-6.90369892 3.13703763 -3.95764021 2.14033701 0 1 C0 0.67 0 0.34 0 0 Z " transform="translate(622,450)" style="fill: #F25667;"/><path d="M0 0 C0 3 0 3 -2.0625 5.625 C-5.47997699 8.3880665 -7.67403972 8.74553175 -12 9 C-12 9.66 -12 10.32 -12 11 C-13.8125 12.0625 -13.8125 12.0625 -16 13 C-16.99 12.67 -17.98 12.34 -19 12 C-16.77144622 10.56154242 -14.54218143 9.12420781 -12.3125 7.6875 C-11.68666016 7.28337891 -11.06082031 6.87925781 -10.41601562 6.46289062 C-6.97755441 4.24859361 -3.52178871 2.08075088 0 0 Z " transform="translate(953,877)" style="fill: #E55C6E;"/><path d="M0 0 C1.65 0 3.3 0 5 0 C5.33 0.66 5.66 1.32 6 2 C6.66 1.34 7.32 0.68 8 0 C8.99 0 9.98 0 11 0 C11 0.66 11 1.32 11 2 C12.65 2 14.3 2 16 2 C15.67 3.65 15.34 5.3 15 7 C9.23167884 5.7856166 4.99813269 4.12383293 0 1 C0 0.67 0 0.34 0 0 Z " transform="translate(737,496)" style="fill: #F3495E;"/><path d="M0 0 C0.66 0 1.32 0 2 0 C2 0.66 2 1.32 2 2 C2.99 2 3.98 2 5 2 C4.67 2.99 4.34 3.98 4 5 C3.34 5 2.68 5 2 5 C1.7525 5.5775 1.505 6.155 1.25 6.75 C-0.16683317 9.3002997 -1.87627537 11.01785701 -4 13 C-4 11.35 -4 9.7 -4 8 C-4.99 7.67 -5.98 7.34 -7 7 C-6.01 7 -5.02 7 -4 7 C-4 6.34 -4 5.68 -4 5 C-2.35 4.67 -0.7 4.34 1 4 C0.34 4 -0.32 4 -1 4 C-0.67 2.68 -0.34 1.36 0 0 Z " transform="translate(692,761)" style="fill: #E95361;"/><path d="M0 0 C2.5 2.25 2.5 2.25 5 5 C5 9 5 9 2.5 11.75 C1.675 12.4925 0.85 13.235 0 14 C0 12.68 0 11.36 0 10 C-0.185625 9.01 -0.37125 8.02 -0.5625 7 C-0.97192404 4.19252086 -0.91248055 2.63605491 0 0 Z " transform="translate(697,749)" style="fill: #F44D65;"/><path d="M0 0 C0.99 0 1.98 0 3 0 C3 4.29 3 8.58 3 13 C1.68 12.34 0.36 11.68 -1 11 C-1.99 11.495 -1.99 11.495 -3 12 C-2.01 8.04 -1.02 4.08 0 0 Z " transform="translate(1059,768)" style="fill: #F54D65;"/><path d="M0 0 C0.33 0 0.66 0 1 0 C1.02730408 1.56240032 1.04653226 3.1249427 1.0625 4.6875 C1.07410156 5.55761719 1.08570313 6.42773438 1.09765625 7.32421875 C1 10 1 10 0.51367188 12.34960938 C0.00728816 14.96239529 -0.20231761 17.42539581 -0.31640625 20.08203125 C-0.37924805 21.47905273 -0.37924805 21.47905273 -0.44335938 22.90429688 C-0.48267578 23.86400391 -0.52199219 24.82371094 -0.5625 25.8125 C-0.60568359 26.79154297 -0.64886719 27.77058594 -0.69335938 28.77929688 C-0.7990226 31.18607027 -0.90112327 33.59293983 -1 36 C-1.33 36 -1.66 36 -2 36 C-2.05859908 31.68755812 -2.09379686 27.37522026 -2.125 23.0625 C-2.14175781 21.85013672 -2.15851562 20.63777344 -2.17578125 19.38867188 C-2.21267208 12.5823144 -1.80060558 6.57150148 0 0 Z " transform="translate(543,940)" style="fill: #FDD9DF;"/><path d="M0 0 C0.66 0.33 1.32 0.66 2 1 C1.67 2.32 1.34 3.64 1 5 C-0.1446875 5.1546875 -0.1446875 5.1546875 -1.3125 5.3125 C-4.02979007 5.74744765 -4.02979007 5.74744765 -5.4375 7.5625 C-7 9 -7 9 -10.1875 9.1875 C-11.115625 9.125625 -12.04375 9.06375 -13 9 C-9.00302635 5.62755348 -4.72909821 2.28625278 0 0 Z " transform="translate(763,999)" style="fill: #ED5164;"/><path d="M0 0 C1.10153804 3.30461413 0.95317786 3.98668832 -0.1875 7.125 C-0.42855469 7.82882812 -0.66960937 8.53265625 -0.91796875 9.2578125 C-2 11 -2 11 -3.98828125 11.7421875 C-6 12 -6 12 -8 12 C-9.62514468 13.45833358 -9.62514468 13.45833358 -11 15 C-11.66 14.67 -12.32 14.34 -13 14 C-12.22914062 13.24074219 -11.45828125 12.48148438 -10.6640625 11.69921875 C-9.65090904 10.69544634 -8.63789552 9.69153268 -7.625 8.6875 C-7.11710937 8.18798828 -6.60921875 7.68847656 -6.0859375 7.17382812 C-3.77145867 4.87457613 -1.81652517 2.72478775 0 0 Z " transform="translate(1037,817)" style="fill: #E8596A;"/><path d="M0 0 C1.36420006 4.09260018 -0.2335485 6.47012659 -1.9375 10.1875 C-2.22818359 10.84169922 -2.51886719 11.49589844 -2.81835938 12.16992188 C-3.53695343 13.78381344 -4.2673588 15.39243655 -5 17 C-5.98255791 13.55013002 -5.75214649 11.51001695 -5 8 C-4.96227087 6.0003559 -4.95350094 3.99945939 -5 2 C-3.35 1.34 -1.7 0.68 0 0 Z " transform="translate(1054,783)" style="fill: #FEEEEE;"/><path d="M0 0 C0.33 0.99 0.66 1.98 1 3 C0.2575 3.12375 -0.485 3.2475 -1.25 3.375 C-3.82930049 3.96120466 -5.7482162 4.63284555 -8 6 C-8.33 6.66 -8.66 7.32 -9 8 C-11.97 7.505 -11.97 7.505 -15 7 C-5.9375 -0.50892857 -5.9375 -0.50892857 0 0 Z " transform="translate(751,1010)" style="fill: #E85265;"/><path d="M0 0 C0.99 0 1.98 0 3 0 C3.04254356 1.99954746 3.04080783 4.00041636 3 6 C2.67 6.33 2.34 6.66 2 7 C1.60851239 8.51165654 1.26027543 10.03469632 0.9375 11.5625 C0.76089844 12.38878906 0.58429688 13.21507812 0.40234375 14.06640625 C0.26957031 14.70449219 0.13679688 15.34257813 0 16 C-0.66 16 -1.32 16 -2 16 C-1.85936865 13.70800823 -1.71234057 11.41640814 -1.5625 9.125 C-1.48128906 7.84882812 -1.40007812 6.57265625 -1.31640625 5.2578125 C-1 2 -1 2 0 0 Z " transform="translate(1063,768)" style="fill: #EF4B56;"/><path d="M0 0 C-1.48559775 4.08539382 -3.70021848 5.21510982 -7.5 7.125 C-11.55086442 9.14539677 -11.55086442 9.14539677 -15 12 C-17.125 11.625 -17.125 11.625 -19 11 C-18.02417969 10.37351562 -17.04835938 9.74703125 -16.04296875 9.1015625 C-14.75780386 8.27605512 -13.47264808 7.45053355 -12.1875 6.625 C-11.54490234 6.2125 -10.90230469 5.8 -10.24023438 5.375 C-1.87430696 0 -1.87430696 0 0 0 Z " transform="translate(794,980)" style="fill: #E35E70;"/><path d="M0 0 C0.66 0.33 1.32 0.66 2 1 C1.01 2.485 1.01 2.485 0 4 C-0.66 4 -1.32 4 -2 4 C-2 4.66 -2 5.32 -2 6 C-3.8125 7.6875 -3.8125 7.6875 -6 9 C-6.99 8.67 -7.98 8.34 -9 8 C-9.66 8.66 -10.32 9.32 -11 10 C-11.99 9.67 -12.98 9.34 -14 9 C-12.41906946 7.87162591 -10.83515284 6.74743482 -9.25 5.625 C-8.36828125 4.99851562 -7.4865625 4.37203125 -6.578125 3.7265625 C-4.4108392 2.27513777 -2.42356585 0.9588891 0 0 Z " transform="translate(1014,838)" style="fill: #E35E70;"/><path d="M0 0 C0.33 0.66 0.66 1.32 1 2 C2.2375 2.495 2.2375 2.495 3.5 3 C6 4 6 4 7 6 C6.01 7.485 6.01 7.485 5 9 C1.37 6.69 -2.26 4.38 -6 2 C-4 0 -4 0 0 0 Z " transform="translate(954,630)" style="fill: #EF4E65;"/><path d="M0 0 C1.98 0.66 3.96 1.32 6 2 C5.01 2.495 5.01 2.495 4 3 C4 3.66 4 4.32 4 5 C5.32 5.33 6.64 5.66 8 6 C8 6.66 8 7.32 8 8 C2.98491285 6.45941767 -1.6147081 4.97068161 -6 2 C-4.68 1.67 -3.36 1.34 -2 1 C-2 1.66 -2 2.32 -2 3 C0.11785113 1.35355339 0.11785113 1.35355339 0 0 Z " transform="translate(600,1048)" style="fill: #F8EDEB;"/><path d="M0 0 C0.33 0 0.66 0 1 0 C1.08121924 1.60332791 1.13929134 3.20784026 1.1875 4.8125 C1.22230469 5.70582031 1.25710938 6.59914063 1.29296875 7.51953125 C0.94079073 10.50130519 0.19319288 11.06482981 -2 13 C-2.97715609 14.80190614 -2.97715609 14.80190614 -3.6875 16.6875 C-4.120625 17.780625 -4.55375 18.87375 -5 20 C-5.66 20 -6.32 20 -7 20 C-5.52404517 15.51695963 -3.96771452 11.06783525 -2.375 6.625 C-2.03082031 5.66400391 -2.03082031 5.66400391 -1.6796875 4.68359375 C-1.12037724 3.12218595 -0.56027192 1.56106299 0 0 Z " transform="translate(1055,782)" style="fill: #E16676;"/><path d="M0 0 C2.64 0 5.28 0 8 0 C7.67 0.66 7.34 1.32 7 2 C10.465 3.98 10.465 3.98 14 6 C13.67 6.99 13.34 7.98 13 9 C10.83061859 7.69181533 8.6644848 6.37874076 6.5 5.0625 C5.87996094 4.68931641 5.25992188 4.31613281 4.62109375 3.93164062 C3.06370003 2.9818016 1.5296725 1.99386689 0 1 C0 0.67 0 0.34 0 0 Z " transform="translate(962,640)" style="fill: #E3596C;"/><path d="M0 0 C3.3 0.99 6.6 1.98 10 3 C10 2.34 10 1.68 10 1 C11.32 1 12.64 1 14 1 C14 1.66 14 2.32 14 3 C13.01 3.495 13.01 3.495 12 4 C11.7715451 6.24362573 11.7715451 6.24362573 14 8.125 C14.66 8.74375 15.32 9.3625 16 10 C12.06342758 8.56786488 8.71068644 6.69667846 5.1875 4.4375 C4.21167969 3.81746094 3.23585938 3.19742188 2.23046875 2.55859375 C1.49441406 2.04425781 0.75835938 1.52992188 0 1 C0 0.67 0 0.34 0 0 Z " transform="translate(842,563)" style="fill: #E45B6B;"/><path d="M0 0 C1.43110959 2.82998698 2.8071805 5.67793954 4.125 8.5625 C4.47820313 9.32691406 4.83140625 10.09132813 5.1953125 10.87890625 C6 13 6 13 6 16 C5.01 16 4.02 16 3 16 C-0.59058175 10.20575649 -1.43484866 6.69596042 0 0 Z " transform="translate(545,992)" style="fill: #EB5F73;"/><path d="M0 0 C0.99 0.33 1.98 0.66 3 1 C-0.96 4.96 -4.92 8.92 -9 13 C-9.66 12.67 -10.32 12.34 -11 12 C-11 11.34 -11 10.68 -11 10 C-9.68 9.67 -8.36 9.34 -7 9 C-7 8.01 -7 7.02 -7 6 C-5.57421875 4.359375 -5.57421875 4.359375 -3.6875 2.75 C-3.07261719 2.20859375 -2.45773437 1.6671875 -1.82421875 1.109375 C-0.92123047 0.56023438 -0.92123047 0.56023438 0 0 Z " transform="translate(573,887)" style="fill: #E16771;"/><path d="M0 0 C0.66 0.33 1.32 0.66 2 1 C2 1.66 2 2.32 2 3 C-1.81679612 5.90803514 -5.39571066 7.68448876 -10 9 C-10.33 8.01 -10.66 7.02 -11 6 C-10.401875 5.896875 -9.80375 5.79375 -9.1875 5.6875 C-6.66608978 4.89505679 -5.80534232 3.88056492 -4 2 C-1.9375 0.75 -1.9375 0.75 0 0 Z " transform="translate(1022,839)" style="fill: #EE4D56;"/><path d="M0 0 C1.48034764 0.47550561 2.95925021 0.95551216 4.4375 1.4375 C5.26121094 1.70433594 6.08492187 1.97117187 6.93359375 2.24609375 C9 3 9 3 10 4 C10.04063832 5.66617115 10.042721 7.33388095 10 9 C8.32572385 8.07615834 6.66071997 7.13549431 5 6.1875 C4.071875 5.66542969 3.14375 5.14335938 2.1875 4.60546875 C1.1046875 3.81076172 1.1046875 3.81076172 0 3 C0 2.01 0 1.02 0 0 Z " transform="translate(867,577)" style="fill: #EF5669;"/><path d="M0 0 C0.66 0.33 1.32 0.66 2 1 C1.3125 2.9375 1.3125 2.9375 0 5 C-2.625 5.75 -2.625 5.75 -5 6 C-5.33 7.32 -5.66 8.64 -6 10 C-6.33 9.34 -6.66 8.68 -7 8 C-8.65 8.33 -10.3 8.66 -12 9 C-9.67350413 6.49280542 -7.17318479 4.67816399 -4.3125 2.8125 C-3.50425781 2.28269531 -2.69601562 1.75289062 -1.86328125 1.20703125 C-1.24839844 0.80871094 -0.63351562 0.41039062 0 0 Z " transform="translate(996,849)" style="fill: #E75A6B;"/><path d="M0 0 C0 3.63195496 -0.95453155 4.74713911 -3 7.6875 C-3.556875 8.49574219 -4.11375 9.30398438 -4.6875 10.13671875 C-5.120625 10.75160156 -5.55375 11.36648438 -6 12 C-8.475 11.01 -8.475 11.01 -11 10 C-9.36587557 8.29159719 -8.13093906 7.06546953 -6 6 C-6 5.01 -6 4.02 -6 3 C-5.01 3 -4.02 3 -3 3 C-1.31201173 1.56249809 -1.31201173 1.56249809 0 0 Z " transform="translate(712,742)" style="fill: #EF8E9C;"/><path d="M0 0 C0.6875 1.8125 0.6875 1.8125 1 4 C-0.3125 5.75 -0.3125 5.75 -2 7 C-2.66 7 -3.32 7 -4 7 C-4.04125 7.61875 -4.0825 8.2375 -4.125 8.875 C-4.41375 9.57625 -4.7025 10.2775 -5 11 C-8.0625 12.25 -8.0625 12.25 -11 13 C-8.35845491 8.79309485 -5.63204066 5.44088062 -2 2 C-1.34 1.34 -0.68 0.68 0 0 Z " transform="translate(671,793)" style="fill: #FCD9DF;"/><path d="M0 0 C0.33 0.66 0.66 1.32 1 2 C1.66 2 2.32 2 3 2 C3.19622241 6.21878192 2.80230168 9.17010894 1 13 C0.67 13 0.34 13 0 13 C0 11.35 0 9.7 0 8 C-0.66 8 -1.32 8 -2 8 C-1.125 1.125 -1.125 1.125 0 0 Z " transform="translate(764,632)" style="fill: #F1838C;"/><path d="M0 0 C4.28477792 2.30718811 7.72291137 4.32966073 11 8 C7.7 7.67 4.4 7.34 1 7 C0 2.25 0 2.25 0 0 Z " transform="translate(824,552)" style="fill: #FCE8E9;"/><path d="M0 0 C0 0.66 0 1.32 0 2 C-0.66 2 -1.32 2 -2 2 C-2.2475 2.9075 -2.495 3.815 -2.75 4.75 C-4.03981342 8.10351489 -5.31971042 9.67708236 -8 12 C-7.54177532 8.53058454 -7.10868317 5.32604951 -6 2 C-3 0 -3 0 0 0 Z " transform="translate(739,704)" style="fill: #EE8F9C;"/><path d="M0 0 C2.64 1.98 5.28 3.96 8 6 C7.01 6.495 7.01 6.495 6 7 C3.875 6.0625 3.875 6.0625 2 5 C1.34 6.32 0.68 7.64 0 9 C-1.65 9 -3.3 9 -5 9 C-5 8.34 -5 7.68 -5 7 C-3.35 6.34 -1.7 5.68 0 5 C0 3.35 0 1.7 0 0 Z " transform="translate(568,1031)" style="fill: #F14B54;"/><path d="M0 0 C-1.21893465 3.65680395 -2.66902598 4.13660243 -5.95703125 5.87890625 C-8.82599024 7.45326807 -11.50085834 9.30158539 -14.203125 11.14453125 C-16 12 -16 12 -19 11 C-18.28082397 10.55346069 -18.28082397 10.55346069 -17.54711914 10.09790039 C-15.38470639 8.75416593 -13.22358963 7.40836126 -11.0625 6.0625 C-9.93038086 5.35963867 -9.93038086 5.35963867 -8.77539062 4.64257812 C-8.05673828 4.19462891 -7.33808594 3.74667969 -6.59765625 3.28515625 C-5.93258057 2.87144775 -5.26750488 2.45773926 -4.58227539 2.03149414 C-1.4660355 0 -1.4660355 0 0 0 Z " transform="translate(733,1019)" style="fill: #DC5E6E;"/><path d="M0 0 C0.99 0.33 1.98 0.66 3 1 C0.0098979 4.33511388 -2.89498574 6.21521119 -7 8 C-7.66 8 -8.32 8 -9 8 C-9 7.34 -9 6.68 -9 6 C-8.34 5.67 -7.68 5.34 -7 5 C-7 4.01 -7 3.02 -7 2 C-4.69 2 -2.38 2 0 2 C0 1.34 0 0.68 0 0 Z " transform="translate(953,874)" style="fill: #FEE7E8;"/><path d="M0 0 C0.33 0 0.66 0 1 0 C1.22262303 6.7281627 0.95021536 12.53991163 -1 19 C-1.33 19 -1.66 19 -2 19 C-2.24991456 12.34949576 -1.73955334 6.43013467 0 0 Z " transform="translate(1058,759)" style="fill: #FCDCDD;"/><path d="M0 0 C-1.30838136 2.002807 -2.62142194 4.00226099 -3.9375 6 C-4.31068359 6.57234375 -4.68386719 7.1446875 -5.06835938 7.734375 C-6.01944589 9.17385729 -7.00694276 10.58914489 -8 12 C-8.33 12 -8.66 12 -9 12 C-9.20086443 8.28400809 -9.1519437 7.22791555 -7 4 C-7 3.34 -7 2.68 -7 2 C-6.34 2 -5.68 2 -5 2 C-5 1.34 -5 0.68 -5 0 C-2 -1 -2 -1 0 0 Z " transform="translate(729,721)" style="fill: #EB8B99;"/><path d="M0 0 C2.83443922 2.83443922 3.49801967 6.25213519 4.625 10 C4.85445312 10.73734375 5.08390625 11.4746875 5.3203125 12.234375 C7 17.71335565 7 17.71335565 7 20 C6.34 20 5.68 20 5 20 C4.34 16.7 3.68 13.4 3 10 C2.34 10 1.68 10 1 10 C0.67 6.7 0.34 3.4 0 0 Z " transform="translate(761,550)" style="fill: #E8919C;"/><path d="M0 0 C0.33 0.66 0.66 1.32 1 2 C-1.68841859 4.25245881 -3.64641875 5.88213958 -7 7 C-7.474375 7.474375 -7.94875 7.94875 -8.4375 8.4375 C-10.19737979 10.19737979 -11.67178884 11.12692081 -14 12 C-14.99 11.67 -15.98 11.34 -17 11 C-16.02417969 10.37351562 -15.04835938 9.74703125 -14.04296875 9.1015625 C-12.75780386 8.27605512 -11.47264808 7.45053355 -10.1875 6.625 C-9.54490234 6.2125 -8.90230469 5.8 -8.24023438 5.375 C-5.48042011 3.60185508 -2.72947292 1.81964862 0 0 Z " transform="translate(909,905)" style="fill: #E45E6D;"/><path d="M0 0 C0.66 0.33 1.32 0.66 2 1 C1 4 1 4 -0.7421875 5.16796875 C-1.44601562 5.50441406 -2.14984375 5.84085938 -2.875 6.1875 C-3.57367187 6.53167969 -4.27234375 6.87585938 -4.9921875 7.23046875 C-7 8 -7 8 -10 8 C-10 8.66 -10 9.32 -10 10 C-11.32 9.67 -12.64 9.34 -14 9 C-10.78821818 6.80658802 -7.57573177 4.72363073 -4.1875 2.8125 C-1.22724111 1.31562661 -1.22724111 1.31562661 0 0 Z " transform="translate(974,863)" style="fill: #E46675;"/><path d="M0 0 C0.99 0 1.98 0 3 0 C1.58832253 5.26170694 -0.74850232 8.72171358 -4 13 C-4.625 11.125 -4.625 11.125 -5 9 C-4.34 8.34 -3.68 7.68 -3 7 C-1.96157435 4.68351201 -0.9578025 2.35096976 0 0 Z " transform="translate(1045,800)" style="fill: #FEE5E3;"/><path d="M0 0 C0.33 0 0.66 0 1 0 C1.18100707 5.24920493 0.93738384 9.04890797 -1 14 C-1.33 15.0725 -1.66 16.145 -2 17.25 C-3 20 -3 20 -5 22 C-4.47693132 17.08315437 -3.33512959 12.81660089 -1.69921875 8.15625 C-0.82847563 5.47105333 -0.35850962 2.79637504 0 0 Z " transform="translate(767,634)" style="fill: #FCDEE0;"/><path d="M0 0 C10.18614719 3.06890332 10.18614719 3.06890332 13 6 C13.75 8.1875 13.75 8.1875 14 10 C10.67312232 8.45315734 7.75296022 6.54045021 4.75 4.4375 C3.85796875 3.81746094 2.9659375 3.19742187 2.046875 2.55859375 C1.37140625 2.04425781 0.6959375 1.52992188 0 1 C0 0.67 0 0.34 0 0 Z " transform="translate(700,471)" style="fill: #E25765;"/><path d="M0 0 C0 3.95880469 -1.4376079 5.07155188 -4 8 C-4.474375 8.5775 -4.94875 9.155 -5.4375 9.75 C-7.51369758 11.41095806 -9.40056541 11.64872506 -12 12 C-8.39424999 7.41086363 -4.52615993 3.67832017 0 0 Z " transform="translate(620,846)" style="fill: #FCDBE0;"/><path d="M0 0 C0.66 0 1.32 0 2 0 C0.45454854 5.47932789 -2.15543212 10.11429181 -5 15 C-5.66 15 -6.32 15 -7 15 C-6.67 13.68 -6.34 12.36 -6 11 C-5.34 11 -4.68 11 -4 11 C-3.896875 10.29875 -3.79375 9.5975 -3.6875 8.875 C-2.90640997 5.60862353 -1.57941257 2.9528148 0 0 Z " transform="translate(745,688)" style="fill: #E78A97;"/><path d="M0 0 C2.29633824 3.44450737 2.54016485 5.93812283 3 10 C3.66 10 4.32 10 5 10 C5.99 12.97 6.98 15.94 8 19 C4.80623468 17.40311734 3.42408504 14.16616965 2 11 C2 10.01 2 9.02 2 8 C1.34 8 0.68 8 0 8 C0 5.36 0 2.72 0 0 Z " transform="translate(544,576)" style="fill: #EF5869;"/><path d="M0 0 C7.41935484 2.41935484 7.41935484 2.41935484 9 4 C9.66 4 10.32 4 11 4 C10.625 5.9375 10.625 5.9375 10 8 C9.01 8.495 9.01 8.495 8 9 C6.66079162 7.88200014 5.32877444 6.75538103 4 5.625 C2.88625 4.68527344 2.88625 4.68527344 1.75 3.7265625 C1.1725 3.15679688 0.595 2.58703125 0 2 C0 1.34 0 0.68 0 0 Z " transform="translate(853,567)" style="fill: #F54F65;"/><path d="M0 0 C1.66666667 1.66666667 3.33333333 3.33333333 5 5 C5.763125 5.721875 6.52625 6.44375 7.3125 7.1875 C9 9 9 9 9 11 C6.75 11 6.75 11 4 10 C1.94304343 7.00985547 0 3.686098 0 0 Z " transform="translate(727,498)" style="fill: #E89098;"/><path d="M0 0 C0.8971875 0.3403125 0.8971875 0.3403125 1.8125 0.6875 C0.3486389 5.07908329 -2.16581338 5.56697433 -6.1875 7.6875 C-5.82037028 4.97074005 -5.46005401 3.07686287 -3.875 0.8125 C-2.1875 -0.3125 -2.1875 -0.3125 0 0 Z " transform="translate(1005.1875,840.3125)" style="fill: #FDE9EA;"/><path d="M0 0 C0.78375 0.04125 1.5675 0.0825 2.375 0.125 C2.375 1.775 2.375 3.425 2.375 5.125 C3.695 5.785 5.015 6.445 6.375 7.125 C2.96178765 7.125 1.98027115 6.45632534 -0.8125 4.625 C-1.52792969 4.1609375 -2.24335937 3.696875 -2.98046875 3.21875 C-3.52316406 2.8578125 -4.06585937 2.496875 -4.625 2.125 C-2.625 0.125 -2.625 0.125 0 0 Z " transform="translate(921.625,609.875)" style="fill: #EB5A6A;"/><path d="M0 0 C2.02045442 0.60183749 4.02111039 1.27306096 6 2 C6.33 2.66 6.66 3.32 7 4 C6.278125 4.12375 5.55625 4.2475 4.8125 4.375 C2.04278106 4.9904931 -0.3970354 5.88444374 -3 7 C-3 3 -3 3 -1.5 1.25 C-1.005 0.8375 -0.51 0.425 0 0 Z " transform="translate(835,560)" style="fill: #FEEBF1;"/><path d="M0 0 C2.97 0.33 5.94 0.66 9 1 C9 1.66 9 2.32 9 3 C9.66 3 10.32 3 11 3 C11.33 4.65 11.66 6.3 12 8 C10.18387512 7.04855402 8.37218919 6.08863067 6.5625 5.125 C5.55316406 4.59132813 4.54382813 4.05765625 3.50390625 3.5078125 C1 2 1 2 0 0 Z " transform="translate(800,536)" style="fill: #EB5A6E;"/><path d="M0 0 C3.2542015 2.83430453 4.5206753 4.68607774 5 9 C3.35 8.67 1.7 8.34 0 8 C-0.98120464 4.94736336 -0.98120464 3.05263664 0 0 Z " transform="translate(749,527)" style="fill: #EF8993;"/><path d="M0 0 C1.32 0.33 2.64 0.66 4 1 C2.04532248 2.33898399 0.0866421 3.67129047 -1.875 5 C-2.96554687 5.7425 -4.05609375 6.485 -5.1796875 7.25 C-8 9 -8 9 -10 9 C-10 8.34 -10 7.68 -10 7 C-9.34 7 -8.68 7 -8 7 C-8 6.34 -8 5.68 -8 5 C-6.865625 4.731875 -5.73125 4.46375 -4.5625 4.1875 C-3.386875 3.795625 -2.21125 3.40375 -1 3 C-0.67 2.01 -0.34 1.02 0 0 Z " transform="translate(819,960)" style="fill: #FDDFE3;"/><path d="M0 0 C0.99 0.66 1.98 1.32 3 2 C-1.95 4.97 -1.95 4.97 -7 8 C-7 4 -7 4 -5 2 C-4.34 2 -3.68 2 -3 2 C-2.01 1.34 -1.02 0.68 0 0 Z " transform="translate(856,936)" style="fill: #FBE7E4;"/><path d="M0 0 C0.66 0 1.32 0 2 0 C3.5078125 1.96875 3.5078125 1.96875 5.125 4.5 C5.66382813 5.3353125 6.20265625 6.170625 6.7578125 7.03125 C7.16773438 7.6809375 7.57765625 8.330625 8 9 C6.68 9 5.36 9 4 9 C4 8.34 4 7.68 4 7 C3.34 7 2.68 7 2 7 C0.5393715 4.35261084 0 3.10551666 0 0 Z " transform="translate(560,1022)" style="fill: #E66075;"/><path d="M0 0 C1 3 1 3 -0.25 5.5 C-1.72101159 7.60144513 -3.15796708 9.24169585 -5 11 C-5.33 11.66 -5.66 12.32 -6 13 C-6.99 13 -7.98 13 -9 13 C-9 9.71507045 -6.25189464 8.25189464 -4 6 C-2.56354621 4.04954357 -1.2896367 2.05386585 0 0 Z " transform="translate(703,755)" style="fill: #FEDDDD;"/><path d="M0 0 C3 1 3 1 4.1328125 2.85546875 C5.99703618 7.23712835 7.50897715 11.21252717 8 16 C5.5615972 13.5615972 4.41079629 11.0864312 2.875 8 C2.33617187 6.9275 1.79734375 5.855 1.2421875 4.75 C0 2 0 2 0 0 Z " transform="translate(1045,704)" style="fill: #E35B6B;"/><path d="M0 0 C3.88263251 3.23552709 4.96742977 6.0952914 6 11 C6.125 13.9375 6.125 13.9375 6 16 C4.34687364 13.52031046 3.10196367 11.25727576 1.875 8.5625 C1.52179687 7.80066406 1.16859375 7.03882813 0.8046875 6.25390625 C0 4 0 4 0 0 Z " transform="translate(546,992)" style="fill: #FEE5E7;"/><path d="M0 0 C3.99500618 1.3697164 6.80009492 3.25722422 10 6 C7 7 7 7 5 6.125 C4.34 5.75375 3.68 5.3825 3 5 C2.01 4.67 1.02 4.34 0 4 C0 2.68 0 1.36 0 0 Z " transform="translate(848,568)" style="fill: #FCE7E3;"/><path d="M0 0 C0.53625 0.2475 1.0725 0.495 1.625 0.75 C0.965 0.75 0.305 0.75 -0.375 0.75 C-0.375 1.41 -0.375 2.07 -0.375 2.75 C-5.78676471 6.75 -5.78676471 6.75 -8.375 6.75 C-8.375 5.76 -8.375 4.77 -8.375 3.75 C-3.35945596 -0.35362694 -3.35945596 -0.35362694 0 0 Z " transform="translate(696.375,1040.25)" style="fill: #FEE5E4;"/><path d="M0 0 C0.59425781 0.20109375 1.18851563 0.4021875 1.80078125 0.609375 C0.34628724 1.6149511 -1.11294318 2.61367935 -2.57421875 3.609375 C-3.79238281 4.4446875 -3.79238281 4.4446875 -5.03515625 5.296875 C-7.19921875 6.609375 -7.19921875 6.609375 -9.19921875 6.609375 C-7.8496834 2.56076896 -4.56268351 -0.81042336 0 0 Z " transform="translate(793.19921875,978.390625)" style="fill: #FEE1E3;"/><path d="M0 0 C4.78504172 2.48454089 7.86077669 4.47951843 11 9 C9.0625 8.625 9.0625 8.625 7 8 C6.67 7.34 6.34 6.68 6 6 C4.7625 5.566875 4.7625 5.566875 3.5 5.125 C1 4 1 4 0.1875 1.875 C0.125625 1.25625 0.06375 0.6375 0 0 Z " transform="translate(1017,676)" style="fill: #FEE0E6;"/><path d="M0 0 C3.96 1.98 3.96 1.98 8 4 C8 4.66 8 5.32 8 6 C8.66 6.33 9.32 6.66 10 7 C5.87248551 6.39301257 2.6678852 4.96189209 -1 3 C-0.67 2.01 -0.34 1.02 0 0 Z " transform="translate(738,497)" style="fill: #FDE5E2;"/><path d="M0 0 C1.65 0 3.3 0 5 0 C5.33 0.66 5.66 1.32 6 2 C6.66 1.34 7.32 0.68 8 0 C8.99 0 9.98 0 11 0 C10.34 1.65 9.68 3.3 9 5 C5.54074837 3.7508258 2.85306797 2.32472205 0 0 Z " transform="translate(737,496)" style="fill: #E35766;"/><path d="M0 0 C0.66 0.99 1.32 1.98 2 3 C-1.63 4.98 -5.26 6.96 -9 9 C-7 5 -7 5 -4 3 C-3.01 3 -2.02 3 -1 3 C-0.67 2.01 -0.34 1.02 0 0 Z " transform="translate(761,997)" style="fill: #FCE6E2;"/><path d="M0 0 C0.33 0.66 0.66 1.32 1 2 C0.34 2 -0.32 2 -1 2 C-1.33 2.99 -1.66 3.98 -2 5 C-2.66 5 -3.32 5 -4 5 C-3.67 5.99 -3.34 6.98 -3 8 C-4.98 7.34 -6.96 6.68 -9 6 C-6.11912454 3.59927045 -3.43595166 1.52708963 0 0 Z " transform="translate(841,949)" style="fill: #EF586E;"/><path d="M0 0 C1.32 0 2.64 0 4 0 C2.52440331 4.42679007 0.09942632 4.91432696 -4 7 C-4.66 7 -5.32 7 -6 7 C-6 6.01 -6 5.02 -6 4 C-4.7934375 3.566875 -4.7934375 3.566875 -3.5625 3.125 C-0.8673532 2.26737432 -0.8673532 2.26737432 0 0 Z " transform="translate(838,947)" style="fill: #FEE6E5;"/><path d="M0 0 C1.32 0.33 2.64 0.66 4 1 C1.69 3.31 -0.62 5.62 -3 8 C-3.33 6.68 -3.66 5.36 -4 4 C-2.68 3.34 -1.36 2.68 0 2 C0 1.34 0 0.68 0 0 Z " transform="translate(660,801)" style="fill: #E35568;"/><path d="M0 0 C0.99 0.33 1.98 0.66 3 1 C2.67 1.99 2.34 2.98 2 4 C1.34 4 0.68 4 0 4 C0 4.66 0 5.32 0 6 C-1.62626404 7.38232443 -3.2925002 8.71937515 -5 10 C-5.33 9.34 -5.66 8.68 -6 8 C-5.195625 7.236875 -4.39125 6.47375 -3.5625 5.6875 C-0.83200976 3.20569102 -0.83200976 3.20569102 0 0 Z " transform="translate(672,794)" style="fill: #F0FEFB;"/><path d="M0 0 C0.66 0 1.32 0 2 0 C2 0.66 2 1.32 2 2 C2.61875 2.268125 3.2375 2.53625 3.875 2.8125 C6 4 6 4 8 7 C5.69 6.34 3.38 5.68 1 5 C0.67 3.35 0.34 1.7 0 0 Z " transform="translate(576,625)" style="fill: #F05466;"/><path d="M0 0 C3.63 1.98 7.26 3.96 11 6 C8 7 8 7 5 6 C5 5.34 5 4.68 5 4 C3.02 4 1.04 4 -1 4 C-0.67 2.68 -0.34 1.36 0 0 Z " transform="translate(880,588)" style="fill: #FDD9DD;"/><path d="M0 0 C3.3 1.98 6.6 3.96 10 6 C9.67 6.66 9.34 7.32 9 8 C5.66666667 6.66666667 2.33333333 5.33333333 -1 4 C-0.67 2.68 -0.34 1.36 0 0 Z " transform="translate(812,544)" style="fill: #FDE2E6;"/><path d="M0 0 C2.35716404 2.15454249 3.78966144 4.19719874 5.1875 7.0625 C5.53167969 7.75472656 5.87585938 8.44695313 6.23046875 9.16015625 C7 11 7 11 7 13 C6.01 12.67 5.02 12.34 4 12 C4 10.68 4 9.36 4 8 C3.34 8 2.68 8 2 8 C0.74335022 5.09399739 0 3.20395416 0 0 Z " transform="translate(754,536)" style="fill: #E3929C;"/><path d="M0 0 C1.32 0.66 2.64 1.32 4 2 C3.67 3.65 3.34 5.3 3 7 C2.34 7 1.68 7 1 7 C1 6.34 1 5.68 1 5 C0.01 5 -0.98 5 -2 5 C-1.34 3.35 -0.68 1.7 0 0 Z " transform="translate(786,528)" style="fill: #FCF4F3;"/><path d="M0 0 C0.99 0.33 1.98 0.66 3 1 C2.05016642 2.50539661 1.08988109 4.00420347 0.125 5.5 C-0.40867187 6.3353125 -0.94234375 7.170625 -1.4921875 8.03125 C-1.98976563 8.6809375 -2.48734375 9.330625 -3 10 C-3.66 10 -4.32 10 -5 10 C-4.38545304 6.00544473 -2.29353263 3.25533664 0 0 Z " transform="translate(565,480)" style="fill: #ED5162;"/><path d="M0 0 C2.875 -0.125 2.875 -0.125 6 0 C6.66 0.66 7.32 1.32 8 2 C4.17679443 3.42258812 1.08718695 4.24042276 -3 4 C-2.34 3.67 -1.68 3.34 -1 3 C-0.67 2.01 -0.34 1.02 0 0 Z " transform="translate(593,1052)" style="fill: #ED4E5C;"/><path d="M0 0 C0.66 0.66 1.32 1.32 2 2 C-3.75 5 -3.75 5 -6 5 C-6 4.34 -6 3.68 -6 3 C-6.66 3 -7.32 3 -8 3 C-8 2.34 -8 1.68 -8 1 C-1.9453125 0.0234375 -1.9453125 0.0234375 0 0 Z " transform="translate(680,1049)" style="fill: #FAEDE8;"/><path d="M0 0 C-1.31115051 3.93345152 -2.84212778 4.32374076 -6.4375 6.25 C-7.42621094 6.79140625 -8.41492188 7.3328125 -9.43359375 7.890625 C-10.28050781 8.25671875 -11.12742187 8.6228125 -12 9 C-12.66 8.67 -13.32 8.34 -14 8 C-12.04532248 6.66101601 -10.0866421 5.32870953 -8.125 4 C-7.03445313 3.2575 -5.94390625 2.515 -4.8203125 1.75 C-2 0 -2 0 0 0 Z " transform="translate(864,935)" style="fill: #D96373;"/><path d="M0 0 C0.99 0.99 1.98 1.98 3 3 C2.6875 5.1875 2.6875 5.1875 2 7 C1.34 7 0.68 7 0 7 C0 7.66 0 8.32 0 9 C-0.66 9 -1.32 9 -2 9 C-1.34 6.03 -0.68 3.06 0 0 Z " transform="translate(546,929)" style="fill: #FDE6E8;"/><path d="M0 0 C1.32 0 2.64 0 4 0 C2.84414715 3.91211733 1.64465038 6.8745041 -1 10 C-1.09978121 6.50765756 -0.77842938 3.40562852 0 0 Z " transform="translate(550,912)" style="fill: #E55466;"/><path d="M0 0 C-4.75 3 -4.75 3 -7 3 C-7 3.66 -7 4.32 -7 5 C-8.32 5.33 -9.64 5.66 -11 6 C-11 5.34 -11 4.68 -11 4 C-10.01 4 -9.02 4 -8 4 C-7.896875 3.360625 -7.79375 2.72125 -7.6875 2.0625 C-7.460625 1.381875 -7.23375 0.70125 -7 0 C-3.86650268 -1.04449911 -3.01031744 -0.93423645 0 0 Z " transform="translate(923,897)" style="fill: #FEE4E2;"/><path d="M0 0 C0.33 1.65 0.66 3.3 1 5 C-1.64 4.67 -4.28 4.34 -7 4 C-3.17391304 0 -3.17391304 0 0 0 Z " transform="translate(983,859)" style="fill: #E95664;"/><path d="M0 0 C2.64 0 5.28 0 8 0 C5.11912454 2.40072955 2.43595166 4.47291037 -1 6 C-0.67 4.02 -0.34 2.04 0 0 Z " transform="translate(716,1024)" style="fill: #FEDEDF;"/><path d="M0 0 C0.33 0.66 0.66 1.32 1 2 C1.66 2 2.32 2 3 2 C3.33 1.34 3.66 0.68 4 0 C4 0.99 4 1.98 4 3 C1.5 5.1875 1.5 5.1875 -1 7 C-1.625 4.625 -1.625 4.625 -2 2 C-1.34 1.34 -0.68 0.68 0 0 Z " transform="translate(627,833)" style="fill: #F05868;"/><path d="M0 0 C1.65 0.33 3.3 0.66 5 1 C3.35 2.98 1.7 4.96 0 7 C-0.66 6.34 -1.32 5.68 -2 5 C-1.34 3.35 -0.68 1.7 0 0 Z " transform="translate(635,825)" style="fill: #EC5467;"/><path d="M0 0 C0.125 2.875 0.125 2.875 0 6 C-0.66 6.66 -1.32 7.32 -2 8 C-2.99 7.34 -3.98 6.68 -5 6 C-2.2 0 -2.2 0 0 0 Z " transform="translate(677,788)" style="fill: #FEEFF3;"/><path d="M0 0 C3.3 1.65 6.6 3.3 10 5 C9.67 5.99 9.34 6.98 9 8 C8.67 7.34 8.34 6.68 8 6 C7.01 6.33 6.02 6.66 5 7 C3.29115995 5.37660195 1.62553283 3.70680947 0 2 C0 1.34 0 0.68 0 0 Z " transform="translate(936,624)" style="fill: #FEDEE0;"/><path d="M0 0 C6.75 0.75 6.75 0.75 9 3 C8.67 3.99 8.34 4.98 8 6 C6.66402348 5.19185349 5.331275 4.37836819 4 3.5625 C3.2575 3.11003906 2.515 2.65757812 1.75 2.19140625 C1.1725 1.79824219 0.595 1.40507813 0 1 C0 0.67 0 0.34 0 0 Z " transform="translate(878,586)" style="fill: #DF5C6B;"/><path d="M0 0 C-1 2 -2 4 -3 6 C-3.66 6 -4.32 6 -5 6 C-5 6.66 -5 7.32 -5 8 C-5.66 8 -6.32 8 -7 8 C-4.73913043 0 -4.73913043 0 0 0 Z " transform="translate(560,490)" style="fill: #EE4E5A;"/><path d="M0 0 C-0.33 0.99 -0.66 1.98 -1 3 C-4.63 3 -8.26 3 -12 3 C-12 2.67 -12 2.34 -12 2 C-10.7625 1.67 -9.525 1.34 -8.25 1 C-7.55390625 0.814375 -6.8578125 0.62875 -6.140625 0.4375 C-4 0 -4 0 0 0 Z " transform="translate(668,1057)" style="fill: #E05C6A;"/><path d="M0 0 C0.33 0.99 0.66 1.98 1 3 C-0.41377782 3.36552803 -1.83120576 3.71695495 -3.25 4.0625 C-4.03890625 4.25972656 -4.8278125 4.45695312 -5.640625 4.66015625 C-8.10394822 5.01497267 -9.65604132 4.76877544 -12 4 C-10.3767313 3.3291288 -8.75132422 2.66342971 -7.125 2 C-6.22007812 1.62875 -5.31515625 1.2575 -4.3828125 0.875 C-2 0 -2 0 0 0 Z " transform="translate(680,1052)" style="fill: #E35A6D;"/><path d="M0 0 C0 3 0 3 0 3 Z M-1 4 C-1.99 5.485 -1.99 5.485 -3 7 C-4.32 6.67 -5.64 6.34 -7 6 C-5.52859548 3.05719096 -3.94280904 2.52859548 -1 4 Z M-11 6 C-7 7 -7 7 -7 7 Z " transform="translate(902,911)" style="fill: #ED4C5B;"/><path d="M0 0 C0 1.65 0 3.3 0 5 C-0.99 5 -1.98 5 -3 5 C-3 5.66 -3 6.32 -3 7 C-4.32 6.67 -5.64 6.34 -7 6 C-6.02388578 4.99702025 -5.04402202 3.99768827 -4.0625 3 C-3.51722656 2.443125 -2.97195313 1.88625 -2.41015625 1.3125 C-1 0 -1 0 0 0 Z " transform="translate(592,873)" style="fill: #FEE8EA;"/><path d="M0 0 C0.78375 0.04125 1.5675 0.0825 2.375 0.125 C-0.39780706 3.20589673 -2.68826356 4.81275452 -6.625 6.125 C-3.85227273 0.18344156 -3.85227273 0.18344156 0 0 Z " transform="translate(1020.625,831.875)" style="fill: #FEE6E5;"/><path d="M0 0 C1.98 0.99 1.98 0.99 4 2 C4 6 4 6 1 9 C0.67 6.03 0.34 3.06 0 0 Z " transform="translate(698,752)" style="fill: #E35669;"/><path d="M0 0 C3.465 1.98 3.465 1.98 7 4 C7 4.66 7 5.32 7 6 C5.35 6 3.7 6 2 6 C1.34 4.02 0.68 2.04 0 0 Z " transform="translate(952,634)" style="fill: #FDE6E7;"/><path d="M0 0 C4.29 0 8.58 0 13 0 C10.16555026 2.83444974 7.93659356 2.79638309 4 3 C2.68 2.01 1.36 1.02 0 0 Z " transform="translate(912,608)" style="fill: #E74E5C;"/><path d="M0 0 C2.79872437 2.52788007 4.45773019 4.20411134 5 8 C3.35 8 1.7 8 0 8 C0 5.36 0 2.72 0 0 Z " transform="translate(744,519)" style="fill: #F28EA0;"/><path d="M0 0 C3.98175544 2.10148204 6.35039045 4.36905358 9 8 C7.35 7.67 5.7 7.34 4 7 C4 6.01 4 5.02 4 4 C3.34 4 2.68 4 2 4 C2 3.34 2 2.68 2 2 C1.34 2 0.68 2 0 2 C0 1.34 0 0.68 0 0 Z " transform="translate(712,484)" style="fill: #E995A0;"/><path d="M0 0 C0.99 0.66 1.98 1.32 3 2 C0.92446352 2.5534764 -0.84365964 3 -3 3 C-3 3.99 -3 4.98 -3 6 C-4.65 6 -6.3 6 -8 6 C-5.51047079 3.33264727 -3.36591866 1.44253657 0 0 Z " transform="translate(883,922)" style="fill: #DF6270;"/><path d="M0 0 C1.98 0 3.96 0 6 0 C3.47211993 2.79872437 1.79588866 4.45773019 -2 5 C-1.34 3.35 -0.68 1.7 0 0 Z " transform="translate(892,912)" style="fill: #FCE8E5;"/><path d="M0 0 C-1.625 5.75 -1.625 5.75 -5 8 C-5.36625971 3.48279689 -5.36625971 3.48279689 -3.625 1.1875 C-2 0 -2 0 0 0 Z " transform="translate(559,904)" style="fill: #DD5766;"/><path d="M0 0 C3 0 3 0 5 2 C2.03 4.475 2.03 4.475 -1 7 C-1.33 6.01 -1.66 5.02 -2 4 C-1.34 4 -0.68 4 0 4 C0 2.68 0 1.36 0 0 Z " transform="translate(643,817)" style="fill: #EC586C;"/><path d="M0 0 C0.33 0.99 0.66 1.98 1 3 C-0.52994792 4.23697917 -2.05989583 5.47395833 -3.58984375 6.7109375 C-5.13266437 7.9666391 -5.13266437 7.9666391 -6 10 C-6.66 9.67 -7.32 9.34 -8 9 C-6.85459775 7.68712379 -5.70866567 6.37470979 -4.5625 5.0625 C-3.92441406 4.33160156 -3.28632812 3.60070312 -2.62890625 2.84765625 C-1.77458541 1.87860647 -0.91348825 0.91348825 0 0 Z " transform="translate(659,806)" style="fill: #FCD7DC;"/><path d="M0 0 C6.75 1.875 6.75 1.875 9 3 C9 3.99 9 4.98 9 6 C5.06326356 4.68775452 2.77280706 3.08089673 0 0 Z " transform="translate(1000,664)" style="fill: #E65468;"/><path d="M0 0 C5.28089024 -0.30466674 6.577168 -0.317124 11 3 C7.37 2.67 3.74 2.34 0 2 C0 1.34 0 0.68 0 0 Z " transform="translate(648,450)" style="fill: #F15361;"/><path d="M0 0 C-4.95 2.97 -4.95 2.97 -10 6 C-10 5.01 -10 4.02 -10 3 C-9.01 3 -8.02 3 -7 3 C-6.67 2.01 -6.34 1.02 -6 0 C-3.42525708 -0.99667468 -2.51072708 -1.25536354 0 0 Z " transform="translate(736,1017)" style="fill: #FDDCDD;"/><path d="M0 0 C1.32 0.66 2.64 1.32 4 2 C4 2.99 4 3.98 4 5 C2.35 5 0.7 5 -1 5 C-0.67 3.35 -0.34 1.7 0 0 Z " transform="translate(788,985)" style="fill: #EE4D59;"/><path d="M0 0 C1.125 3.75 1.125 3.75 0 6 C-2.5625 6.625 -2.5625 6.625 -5 7 C-3.47793991 4.37098712 -2.15634036 2.15634036 0 0 Z " transform="translate(566,897)" style="fill: #FDE6E9;"/><path d="M0 0 C1.32 0.33 2.64 0.66 4 1 C1.36 2.98 -1.28 4.96 -4 7 C-3.67 5.35 -3.34 3.7 -3 2 C-2.01 2 -1.02 2 0 2 C0 1.34 0 0.68 0 0 Z " transform="translate(580,880)" style="fill: #DB5D6D;"/><path d="M0 0 C3.71599191 -0.20086443 4.77208445 -0.1519437 8 2 C7.67 2.99 7.34 3.98 7 5 C4.69 3.68 2.38 2.36 0 1 C0 0.67 0 0.34 0 0 Z " transform="translate(928,618)" style="fill: #E25D70;"/><path d="M0 0 C1.32 0 2.64 0 4 0 C4 1.65 4 3.3 4 5 C1.69 4.34 -0.62 3.68 -3 3 C-2.01 2.67 -1.02 2.34 0 2 C0 1.34 0 0.68 0 0 Z " transform="translate(784,522)" style="fill: #E9525F;"/><path d="M0 0 C1.9375 0.8125 1.9375 0.8125 4 2 C4.33 2.99 4.66 3.98 5 5 C4.01 5.495 4.01 5.495 3 6 C3 5.01 3 4.02 3 3 C-0.72614153 4.11854586 -0.72614153 4.11854586 -3 7 C-3 6.01 -3 5.02 -3 4 C-2.34 3.67 -1.68 3.34 -1 3 C-0.67 2.01 -0.34 1.02 0 0 Z " transform="translate(739,514)" style="fill: #ED8997;"/><path d="M0 0 C0.66 0.33 1.32 0.66 2 1 C1.67 2.32 1.34 3.64 1 5 C-1.31 5 -3.62 5 -6 5 C-5.195625 4.360625 -4.39125 3.72125 -3.5625 3.0625 C-1.7249496 1.59396498 -1.7249496 1.59396498 0 0 Z " transform="translate(756,1003)" style="fill: #E15A6D;"/><path d="M0 0 C1.9375 0.6875 1.9375 0.6875 4 2 C4.75 4.625 4.75 4.625 5 7 C4.01 7 3.02 7 2 7 C1.34 4.69 0.68 2.38 0 0 Z " transform="translate(546,1001)" style="fill: #E8536C;"/><path d="M0 0 C-2.31 1.32 -4.62 2.64 -7 4 C-7.33 3.34 -7.66 2.68 -8 2 C-6.14210462 -1.71579076 -3.44525918 -1.06921837 0 0 Z " transform="translate(784,986)" style="fill: #FEE3E3;"/><path d="M0 0 C0.66 0.33 1.32 0.66 2 1 C-0.31 3.31 -2.62 5.62 -5 8 C-5.66 7.67 -6.32 7.34 -7 7 C-7 6.34 -7 5.68 -7 5 C-6.401875 4.731875 -5.80375 4.46375 -5.1875 4.1875 C-3.02775192 3.01506533 -1.64209744 1.80630718 0 0 Z " transform="translate(590,872)" style="fill: #DD616C;"/><path d="M0 0 C0 1.65 0 3.3 0 5 C-1.65 4.67 -3.3 4.34 -5 4 C-3.8732544 0.61976321 -3.52080611 0 0 0 Z M-8 5 C-6 6 -6 6 -6 6 Z " transform="translate(683,775)" style="fill: #F8455B;"/><path d="M0 0 C0.99 0.33 1.98 0.66 3 1 C1.68 3.64 0.36 6.28 -1 9 C-1.33 9 -1.66 9 -2 9 C-1.125 2.25 -1.125 2.25 0 0 Z " transform="translate(749,679)" style="fill: #E78897;"/><path d="M0 0 C0.33 1.32 0.66 2.64 1 4 C-1.02045442 3.39816251 -3.02111039 2.72693904 -5 2 C-5.33 1.34 -5.66 0.68 -6 0 C-3.50907189 -1.24546405 -2.58919267 -0.7767578 0 0 Z " transform="translate(982,649)" style="fill: #E15A68;"/><path d="M0 0 C3.68754757 0.49831724 5.60490662 1.10067643 8 4 C7.67 4.66 7.34 5.32 7 6 C5.83054208 5.19152271 4.66449539 4.37810888 3.5 3.5625 C2.8503125 3.11003906 2.200625 2.65757812 1.53125 2.19140625 C1.0259375 1.79824219 0.520625 1.40507813 0 1 C0 0.67 0 0.34 0 0 Z " transform="translate(888,592)" style="fill: #D95B6B;"/><path d="M0 0 C0.33 0 0.66 0 1 0 C1.2954439 5.02254631 0.98514628 7.89542386 -2 12 C-3.40907283 9.18185434 -2.50872691 7.82722796 -1.5625 4.875 C-1.27503906 3.96492187 -0.98757813 3.05484375 -0.69140625 2.1171875 C-0.46324219 1.41851563 -0.23507812 0.71984375 0 0 Z " transform="translate(547,512)" style="fill: #FD6B7D;"/><path d="M0 0 C2.97 1.65 5.94 3.3 9 5 C7.68 5.33 6.36 5.66 5 6 C2.25 4.1875 2.25 4.1875 0 2 C0 1.34 0 0.68 0 0 Z " transform="translate(752,506)" style="fill: #FEDDDF;"/><path d="M0 0 C0 0.66 0 1.32 0 2 C1.32 2.33 2.64 2.66 4 3 C4 3.66 4 4.32 4 5 C1.03 4.01 -1.94 3.02 -5 2 C-2 0 -2 0 0 0 Z " transform="translate(604,1051)" style="fill: #FAD3D7;"/><path d="M0 0 C2.97 0.495 2.97 0.495 6 1 C4.71034824 2.37562854 3.37310707 3.70766393 2 5 C1.34 5 0.68 5 0 5 C0 3.35 0 1.7 0 0 Z " transform="translate(736,1011)" style="fill: #FBE9E5;"/><path d="M0 0 C0.66 0 1.32 0 2 0 C2.33 0.66 2.66 1.32 3 2 C3.99 2.33 4.98 2.66 6 3 C4.02 3.99 2.04 4.98 0 6 C-1 3 -1 3 0 0 Z " transform="translate(825,953)" style="fill: #FCE7E8;"/><path d="M0 0 C0.99 0.66 1.98 1.32 3 2 C0.03 3.98 0.03 3.98 -3 6 C-2.625 3.5625 -2.625 3.5625 -2 1 C-1.34 0.67 -0.68 0.34 0 0 Z " transform="translate(877,922)" style="fill: #FEE7E7;"/><path d="M0 0 C0.33 0.99 0.66 1.98 1 3 C-2 5 -2 5 -6 5 C-5.67 4.01 -5.34 3.02 -5 2 C-2.4375 0.8125 -2.4375 0.8125 0 0 Z " transform="translate(889,914)" style="fill: #F5FDF7;"/><path d="M0 0 C0.99 0.33 1.98 0.66 3 1 C0.03 3.475 0.03 3.475 -3 6 C-3 4.68 -3 3.36 -3 2 C-2.01 1.34 -1.02 0.68 0 0 Z " transform="translate(573,887)" style="fill: #EC6374;"/><path d="M0 0 C-1.12073862 0.83905565 -2.24674547 1.67107831 -3.375 2.5 C-4.31472656 3.19609375 -4.31472656 3.19609375 -5.2734375 3.90625 C-7 5 -7 5 -9 5 C-8 2 -8 2 -5.625 0.25 C-3 -1 -3 -1 0 0 Z " transform="translate(943,884)" style="fill: #FFDCE1;"/><path d="M0 0 C0.33 0.99 0.66 1.98 1 3 C0.2575 3.6496875 0.2575 3.6496875 -0.5 4.3125 C-2.33218192 5.99740483 -2.33218192 5.99740483 -2 9 C-2.99 9 -3.98 9 -5 9 C-3.7508258 5.54074837 -2.32472205 2.85306797 0 0 Z " transform="translate(735,711)" style="fill: #FEE5E9;"/><path d="M0 0 C-0.4979837 3.73487777 -0.87491756 5.81237635 -3 9 C-3.09765625 2.84765625 -3.09765625 2.84765625 -3 1 C-2 0 -2 0 0 0 Z " transform="translate(767,636)" style="fill: #E68F95;"/><path d="M0 0 C3.37503669 1.1858237 5.64722731 2.27573689 8 5 C2.25 4.125 2.25 4.125 0 3 C0 2.01 0 1.02 0 0 Z " transform="translate(912,609)" style="fill: #FEDFDC;"/><path d="M0 0 C4.455 0.99 4.455 0.99 9 2 C9 3.32 9 4.64 9 6 C5.88802644 4.50164236 2.91164984 2.86022073 0 1 C0 0.67 0 0.34 0 0 Z " transform="translate(725,488)" style="fill: #E26B74;"/><path d="M0 0 C1.32 0 2.64 0 4 0 C5.75 2 5.75 2 7 4 C6.67 4.66 6.34 5.32 6 6 C3.37812506 4.95125002 2.20628639 4.35068687 0.75 1.875 C0.5025 1.25625 0.255 0.6375 0 0 Z " transform="translate(690,464)" style="fill: #F04F63;"/><path d="M0 0 C2.64 1.98 5.28 3.96 8 6 C6 7 6 7 3.4375 6.375 C1 5 1 5 0.1875 2.375 C0.125625 1.59125 0.06375 0.8075 0 0 Z " transform="translate(568,1031)" style="fill: #E76074;"/><path d="M0 0 C1.32 0.33 2.64 0.66 4 1 C4.33 3.31 4.66 5.62 5 8 C2.27573689 5.64722731 1.1858237 3.37503669 0 0 Z " transform="translate(552,1008)" style="fill: #FCE2E1;"/><path d="M0 0 C1.65 0.33 3.3 0.66 5 1 C4.01 2.485 4.01 2.485 3 4 C1.68 4 0.36 4 -1 4 C-0.67 2.68 -0.34 1.36 0 0 Z " transform="translate(833,947)" style="fill: #F4FDF6;"/><path d="M0 0 C0 3.90838866 -1.50567876 5.11594107 -4 8 C-4.99 7.67 -5.98 7.34 -7 7 C-4.69 4.69 -2.38 2.38 0 0 Z " transform="translate(575,888)" style="fill: #FDF0EB;"/><path d="M0 0 C0.33 1.32 0.66 2.64 1 4 C0.34 4 -0.32 4 -1 4 C-1 4.66 -1 5.32 -1 6 C-2.32 5.67 -3.64 5.34 -5 5 C-3.35 3.35 -1.7 1.7 0 0 Z " transform="translate(607,858)" style="fill: #FEDFEB;"/><path d="M0 0 C0.99 0.66 1.98 1.32 3 2 C-0.96 3.98 -0.96 3.98 -5 6 C-5 5.34 -5 4.68 -5 4 C-4.34 4 -3.68 4 -3 4 C-2.67 3.01 -2.34 2.02 -2 1 C-1.34 0.67 -0.68 0.34 0 0 Z " transform="translate(989,851)" style="fill: #FDE3E2;"/><path d="M0 0 C0.33 0.66 0.66 1.32 1 2 C0.0625 4.625 0.0625 4.625 -1 7 C-2.32 6.67 -3.64 6.34 -5 6 C-3.35 4.02 -1.7 2.04 0 0 Z " transform="translate(693,768)" style="fill: #FDDAD8;"/><path d="M0 0 C2.02054804 1.64169528 4.02043058 3.30911778 6 5 C6 5.33 6 5.66 6 6 C4.35 6 2.7 6 1 6 C0.67 4.02 0.34 2.04 0 0 Z " transform="translate(681,730)" style="fill: #EF5567;"/><path d="M0 0 C0.33 0 0.66 0 1 0 C1.22036864 3.85645121 0.60355101 6.49223216 -1 10 C-1.66 10 -2.32 10 -3 10 C-2.01 6.7 -1.02 3.4 0 0 Z " transform="translate(761,656)" style="fill: #FEE1E5;"/><path d="M0 0 C2.64 0 5.28 0 8 0 C7.34 1.32 6.68 2.64 6 4 C1.125 2.25 1.125 2.25 0 0 Z " transform="translate(962,640)" style="fill: #E66579;"/><path d="M0 0 C3.96 1.98 3.96 1.98 8 4 C8 4.33 8 4.66 8 5 C4.28400809 5.20086443 3.22791555 5.1519437 0 3 C0 2.01 0 1.02 0 0 Z " transform="translate(928,619)" style="fill: #FEDDE7;"/><path d="M0 0 C0.99 0.33 1.98 0.66 3 1 C3 3.31 3 5.62 3 8 C2.34 8 1.68 8 1 8 C0.67 5.36 0.34 2.72 0 0 Z " transform="translate(765,548)" style="fill: #EDFDFB;"/></svg>